<svg width="21" height="21" viewBox="0 0 21 21" fill="none" xmlns="http://www.w3.org/2000/svg">
<path d="M10.0872 6.74016C8.24275 6.74016 6.73752 8.24542 6.73752 10.0899C6.73752 11.9344 8.24275 13.4397 10.0872 13.4397C11.9317 13.4397 13.4369 11.9344 13.4369 10.0899C13.4369 8.24542 11.9317 6.74016 10.0872 6.74016ZM20.1338 10.0899C20.1338 8.70277 20.1464 7.32819 20.0685 5.94356C19.9906 4.33527 19.6237 2.90792 18.4476 1.73186C17.2691 0.553285 15.8443 0.188907 14.236 0.111006C12.8489 0.0331046 11.4743 0.0456693 10.0897 0.0456693C8.70261 0.0456693 7.32806 0.0331046 5.94345 0.111006C4.33519 0.188907 2.90786 0.555798 1.73183 1.73186C0.553275 2.91043 0.188905 4.33527 0.111005 5.94356C0.0331048 7.33071 0.0456693 8.70529 0.0456693 10.0899C0.0456693 11.4746 0.0331048 12.8517 0.111005 14.2363C0.188905 15.8446 0.555788 17.2719 1.73183 18.448C2.91038 19.6266 4.33519 19.9909 5.94345 20.0688C7.33057 20.1467 8.70513 20.1342 10.0897 20.1342C11.4769 20.1342 12.8514 20.1467 14.236 20.0688C15.8443 19.9909 17.2716 19.624 18.4476 18.448C19.6262 17.2694 19.9906 15.8446 20.0685 14.2363C20.1489 12.8517 20.1338 11.4771 20.1338 10.0899ZM10.0872 15.244C7.23508 15.244 4.93326 12.9421 4.93326 10.0899C4.93326 7.23773 7.23508 4.93587 10.0872 4.93587C12.9394 4.93587 15.2412 7.23773 15.2412 10.0899C15.2412 12.9421 12.9394 15.244 10.0872 15.244ZM15.4523 5.92848C14.7863 5.92848 14.2486 5.39071 14.2486 4.72478C14.2486 4.05885 14.7863 3.52108 15.4523 3.52108C16.1182 3.52108 16.6559 4.05885 16.6559 4.72478C16.6561 4.88291 16.6251 5.03952 16.5647 5.18565C16.5043 5.33178 16.4156 5.46455 16.3038 5.57637C16.192 5.68818 16.0593 5.77684 15.9131 5.83726C15.767 5.89768 15.6104 5.92868 15.4523 5.92848Z" fill="#3D3D3D"/>
</svg>
