<svg width="20" height="15" viewBox="0 0 20 15" fill="none" xmlns="http://www.w3.org/2000/svg">
<path d="M18.9924 0.00658076C18.9072 -0.00219359 18.8214 -0.00219359 18.7362 0.00658076H1.24419C1.13208 0.00830819 1.02071 0.0251182 0.913086 0.056558L9.94024 9.04623L18.9924 0.00658076Z" fill="#FFD400"/>
<path d="M19.9169 0.875L10.8211 9.93339C10.587 10.1661 10.2703 10.2967 9.94022 10.2967C9.61014 10.2967 9.29346 10.1661 9.05937 9.93339L0.0447068 0.943719C0.0169939 1.04557 0.00230014 1.15053 0.000976562 1.25608V13.7504C0.000976562 14.0818 0.132613 14.3996 0.366927 14.6339C0.601241 14.8682 0.919039 14.9998 1.25041 14.9998H18.7425C19.0738 14.9998 19.3916 14.8682 19.626 14.6339C19.8603 14.3996 19.9919 14.0818 19.9919 13.7504V1.25608C19.9869 1.12592 19.9616 0.997342 19.9169 0.875ZM2.10627 13.7504H1.23792V12.8571L5.7796 8.35286L6.66046 9.23371L2.10627 13.7504ZM18.73 13.7504H17.8554L13.3012 9.23371L14.182 8.35286L18.7237 12.8571L18.73 13.7504Z" fill="#FFD400"/>
</svg>
