<svg width="12" height="19" viewBox="0 0 12 19" fill="none" xmlns="http://www.w3.org/2000/svg">
<path d="M5.98578 9.60248C3.19029 9.60248 0.866821 7.42402 0.866821 4.84627C0.866821 2.17938 3.19029 0 5.98677 0C8.87824 0 11.1057 2.17846 11.1057 4.84627C11.1007 6.11198 10.5604 7.32405 9.60352 8.21608C8.64661 9.10811 7.35142 9.60711 6.0026 9.60341L5.98578 9.60248ZM5.98578 2.80154C4.80227 2.80154 3.90178 3.73476 3.90178 4.8472C3.90178 5.95779 4.80227 6.8028 5.98677 6.8028C7.21876 6.8028 8.07176 5.95779 8.07176 4.8472C8.07275 3.73383 7.21876 2.80154 5.98578 2.80154ZM8.02426 13.5601L10.9167 16.1833C11.4857 16.76 11.4857 17.605 10.9167 18.1389C10.3012 18.7156 9.35224 18.7156 8.87824 18.1389L5.98677 15.4711L3.19029 18.1389C2.90629 18.4054 2.5263 18.5382 2.09881 18.5382C1.76731 18.5382 1.38832 18.4045 1.05583 18.1389C0.486832 17.605 0.486832 16.76 1.05583 16.1824L3.9948 13.5592C2.93344 13.2642 1.91529 12.8466 0.963797 12.3158C0.252308 11.9601 0.110802 11.0715 0.489801 10.4038C0.963797 9.73712 1.81679 9.55976 2.57578 10.0046C3.60353 10.5931 4.78424 10.9045 5.98825 10.9045C7.19226 10.9045 8.37298 10.5931 9.40073 10.0046C10.1597 9.55976 11.0592 9.73712 11.4857 10.4038C11.9132 11.0715 11.7222 11.9592 11.0582 12.3158C10.1587 12.8497 9.11574 13.25 8.02525 13.561L8.02426 13.5601Z" fill="#FF7A01"/>
</svg>
