<svg width="12" height="21" viewBox="0 0 12 21" fill="none" xmlns="http://www.w3.org/2000/svg">
<path d="M6.19112 10.4326C3.38305 10.4326 1.04913 8.076 1.04913 5.28747C1.04913 2.40251 3.38305 0.0449219 6.19211 0.0449219C9.0966 0.0449219 11.3341 2.40151 11.3341 5.28747C11.3291 6.65667 10.7864 7.96785 9.82514 8.93282C8.86392 9.89779 7.5629 10.4376 6.20802 10.4336L6.19112 10.4326ZM6.19112 3.07554C5.00229 3.07554 4.09774 4.08507 4.09774 5.28848C4.09774 6.48987 5.00229 7.40398 6.19211 7.40398C7.42965 7.40398 8.28648 6.48987 8.28648 5.28848C8.28748 4.08407 7.42965 3.07554 6.19112 3.07554ZM8.23877 14.7138L11.1442 17.5516C11.7158 18.1754 11.7158 19.0895 11.1442 19.6671C10.526 20.2909 9.57273 20.2909 9.0966 19.6671L6.19211 16.7811L3.38305 19.6671C3.09777 19.9554 2.71607 20.099 2.28666 20.099C1.95367 20.099 1.57297 19.9544 1.23898 19.6671C0.667427 19.0895 0.667427 18.1754 1.23898 17.5506L4.19118 14.7128C3.12504 14.3938 2.10231 13.942 1.14654 13.3678C0.431848 12.983 0.289705 12.0217 0.670409 11.2995C1.14654 10.5782 2.00337 10.3864 2.76577 10.8675C3.79815 11.5042 4.98418 11.8411 6.1936 11.8411C7.40303 11.8411 8.58906 11.5042 9.62143 10.8675C10.3838 10.3864 11.2874 10.5782 11.7158 11.2995C12.1452 12.0217 11.9534 12.982 11.2864 13.3678C10.3828 13.9454 9.33516 14.3783 8.23976 14.7148L8.23877 14.7138Z" fill="#3D3D3D"/>
</svg>
