<svg width="13" height="15" viewBox="0 0 13 15" fill="none" xmlns="http://www.w3.org/2000/svg">
<path d="M12.394 2.37015L10.7138 0.433253C10.5953 0.295893 10.4544 0.186907 10.2993 0.112555C10.1441 0.0382044 9.97779 -4.64556e-05 9.8098 4.23414e-08C9.46745 4.23414e-08 9.14562 0.154733 8.90424 0.433253L7.09625 2.51942C6.97721 2.65618 6.88276 2.81873 6.81832 2.99773C6.75388 3.17674 6.72073 3.36867 6.72077 3.5625C6.72077 3.95752 6.85487 4.32888 7.09625 4.6074L8.41832 6.13289C8.10885 6.91995 7.6786 7.63596 7.14831 8.24636C6.61936 8.85972 5.99889 9.35798 5.31667 9.71723L3.9946 8.19175C3.87608 8.05439 3.7352 7.9454 3.58007 7.87105C3.42493 7.7967 3.25859 7.75845 3.09061 7.7585C2.74826 7.7585 2.42642 7.91323 2.18504 8.19175L0.375481 10.2761C0.256291 10.4131 0.161757 10.576 0.0973171 10.7553C0.0328775 10.9346 -0.0001955 11.1269 8.69341e-07 11.321C8.69341e-07 11.716 0.134101 12.0874 0.375481 12.3659L2.05252 14.301C2.43746 14.747 2.96913 15 3.515 15C3.63016 15 3.7406 14.9891 3.84946 14.9672C5.97612 14.5631 8.08544 13.2579 9.78772 11.2955C11.4884 9.33495 12.618 6.90291 12.973 4.44175C13.0803 3.68993 12.8641 2.91626 12.394 2.37015Z" fill="#FFD400"/>
</svg>
