<svg width="23" height="14" viewBox="0 0 23 14" fill="none" xmlns="http://www.w3.org/2000/svg">
<path d="M19.6919 9.56456C19.6919 9.56456 21.4606 11.3104 21.896 12.1208C21.9085 12.1375 21.9148 12.1541 21.9189 12.1625C22.096 12.4604 22.1377 12.6916 22.0502 12.8646C21.9044 13.1521 21.4044 13.2937 21.2335 13.3062H18.1085C17.8919 13.3062 17.4377 13.25 16.8877 12.8708C16.4648 12.575 16.0481 12.0896 15.6419 11.6166C15.0356 10.9125 14.5106 10.3041 13.9814 10.3041C13.9142 10.304 13.8474 10.3146 13.7835 10.3354C13.3835 10.4646 12.871 11.0354 12.871 12.5562C12.871 13.0312 12.496 13.3041 12.2314 13.3041H10.8002C10.3127 13.3041 7.77311 13.1333 5.52311 10.7604C2.76894 7.85414 0.289779 2.02497 0.268945 1.9708C0.112695 1.59372 0.435612 1.39164 0.787696 1.39164H3.94395C4.36478 1.39164 4.50228 1.64789 4.59811 1.87497C4.71061 2.13955 5.12311 3.19164 5.8002 4.37497C6.89811 6.30414 7.57103 7.08747 8.11061 7.08747C8.21179 7.08628 8.31116 7.06054 8.4002 7.01247C9.10436 6.6208 8.97311 4.11039 8.94186 3.58955C8.94186 3.49164 8.93978 2.46664 8.57936 1.97497C8.32103 1.61872 7.88144 1.4833 7.61478 1.4333C7.72271 1.28437 7.86491 1.16361 8.02936 1.08122C8.51269 0.839554 9.38353 0.804138 10.2481 0.804138H10.7294C11.6669 0.816638 11.9085 0.877055 12.2481 0.962472C12.9356 1.12706 12.9502 1.57081 12.8898 3.08956C12.871 3.52081 12.8523 4.00831 12.8523 4.58331C12.8523 4.70831 12.846 4.84164 12.846 4.9833C12.8252 5.75622 12.8002 6.63331 13.346 6.99372C13.4172 7.03836 13.4995 7.06218 13.5835 7.06247C13.7731 7.06247 14.3439 7.06247 15.8898 4.41039C16.3665 3.55676 16.7808 2.66971 17.1294 1.75622C17.1606 1.70205 17.2523 1.53539 17.3606 1.4708C17.4406 1.43005 17.5292 1.40931 17.6189 1.41039H21.3294C21.7335 1.41039 22.0106 1.4708 22.0627 1.62705C22.1544 1.87497 22.046 2.63122 20.3523 4.92497L19.596 5.92289C18.0606 7.93539 18.0606 8.03747 19.6919 9.56456Z" fill="#FF7A01"/>
</svg>
