<svg width="23" height="13" viewBox="0 0 23 13" fill="none" xmlns="http://www.w3.org/2000/svg">
<path d="M20.0689 8.5516C20.0689 8.5516 21.8094 10.2276 22.2378 11.0056C22.2501 11.0216 22.2563 11.0376 22.2604 11.0456C22.4346 11.3316 22.4756 11.5536 22.3895 11.7196C22.246 11.9956 21.754 12.1316 21.5859 12.1436H18.5109C18.2977 12.1436 17.8508 12.0896 17.3096 11.7256C16.8943 11.4421 16.485 10.9774 16.086 10.5242L16.0837 10.5216C15.4872 9.8456 14.9706 9.2616 14.4499 9.2616C14.3837 9.26149 14.318 9.27161 14.2551 9.2916C13.8615 9.4156 13.3572 9.9636 13.3572 11.4236C13.3572 11.8796 12.9882 12.1416 12.7279 12.1416H11.3195C10.8398 12.1416 8.34087 11.9776 6.12687 9.6996C3.41677 6.9096 0.977275 1.3136 0.956775 1.2616C0.803025 0.899601 1.12077 0.705601 1.46722 0.705601H4.57297C4.98707 0.705601 5.12238 0.951601 5.21668 1.1696C5.32738 1.4236 5.73328 2.4336 6.39953 3.5696C7.47988 5.4216 8.14203 6.1736 8.67298 6.1736C8.77253 6.17246 8.87032 6.14775 8.95792 6.1016C9.65082 5.7256 9.52167 3.3156 9.49092 2.8156C9.49092 2.7216 9.48887 1.7376 9.13422 1.2656C8.88002 0.9236 8.44747 0.793601 8.18507 0.745601C8.29128 0.602623 8.43121 0.48669 8.59302 0.4076C9.06862 0.1756 9.92553 0.141602 10.7763 0.141602H11.2498C12.1723 0.153602 12.4101 0.211601 12.7443 0.293601C13.4208 0.451601 13.4351 0.877601 13.3757 2.3356C13.3572 2.7496 13.3388 3.2176 13.3388 3.7696C13.3388 3.8896 13.3326 4.0176 13.3326 4.1536L13.3325 4.15902C13.312 4.8997 13.2888 5.73844 13.8246 6.0836C13.8947 6.12646 13.9756 6.14932 14.0583 6.1496C14.2449 6.1496 14.8066 6.1496 16.3277 3.6036C16.7968 2.78412 17.2044 1.93255 17.5474 1.0556C17.5782 1.0036 17.6684 0.843601 17.775 0.781601C17.8536 0.742473 17.9409 0.722569 18.0292 0.7236H21.6802C22.0779 0.7236 22.3506 0.781601 22.4018 0.931601C22.492 1.1696 22.3854 1.8956 20.7188 4.0976L19.9746 5.0556C18.4638 6.9876 18.4638 7.0856 20.0689 8.5516Z" fill="#3D3D3D"/>
</svg>
