<svg width="22" height="18" viewBox="0 0 22 18" fill="none" xmlns="http://www.w3.org/2000/svg">
<path d="M21.4638 3.16845C21.9557 5.08633 21.9557 9.08998 21.9557 9.08998C21.9557 9.08998 21.9557 13.0936 21.4638 15.0115C21.1904 16.0716 20.3908 16.9057 19.378 17.1877C17.5387 17.7 11.1932 17.7 11.1932 17.7C11.1932 17.7 4.85082 17.7 3.00828 17.1877C1.99123 16.9014 1.19265 16.0684 0.92251 15.0115C0.430664 13.0936 0.430664 9.08998 0.430664 9.08998C0.430664 9.08998 0.430664 5.08633 0.92251 3.16845C1.19588 2.10835 1.99553 1.27425 3.00828 0.992275C4.85082 0.47998 11.1932 0.47998 11.1932 0.47998C11.1932 0.47998 17.5387 0.47998 19.378 0.992275C20.3951 1.27856 21.1937 2.11158 21.4638 3.16845V3.16845ZM9.04066 12.8569L15.4982 9.08998L9.04066 5.32311V12.8569Z" fill="#3D3D3D"/>
</svg>
