<svg width="116" height="117" viewBox="0 0 116 117" fill="none" xmlns="http://www.w3.org/2000/svg">
<g opacity="0.1">
<path d="M9.31722 16.1419C11.4349 19.4386 13.8523 22.5427 16.7321 25.1805C16.4324 25.373 16.0513 25.7025 16.0811 26.2761C15.7119 29.3921 15.2057 32.4267 14.8365 35.5428C14.7591 36.6086 16.073 37.204 16.8907 36.7634C18.6075 35.7453 20.4057 34.5902 22.1225 33.572C23.3213 32.802 24.4387 32.1688 25.445 31.0991C27.7473 32.8377 30.2678 34.5208 32.6515 36.1225C33.6101 36.6922 34.5906 35.9777 34.5866 35.0488C34.9003 31.7145 34.7772 28.4913 33.9437 25.2164C33.8881 24.9981 33.6956 24.6984 33.5587 24.617C37.0776 23.3727 40.156 21.3106 43.2343 19.2485C44.052 18.8079 44.3736 17.3312 43.1966 16.8172C39.4733 14.9753 35.5356 14.1178 31.576 14.5445C30.2503 11.1625 28.1882 8.08414 25.745 5.33525C25.223 4.65448 23.9131 4.9879 23.7801 5.83538C23.1628 8.43339 22.5455 11.0314 22.0652 13.7108C18.1831 13.0716 14.168 13.28 10.4009 14.0064C9.39068 14.1473 8.79525 15.4612 9.31722 16.1419ZM30.1887 15.9437C30.1371 16.6542 30.5221 17.2536 31.451 17.2497C34.182 17.0195 36.9427 17.3629 39.5149 18.3354C36.8177 20.0681 34.2573 21.8821 32.082 24.2955C31.9193 24.5694 31.9748 24.7877 32.1118 24.8691C32.0304 25.006 31.8677 25.2799 31.9232 25.4982C32.1792 27.874 32.2169 30.3053 32.1176 32.6552C30.0893 31.0793 27.8426 29.559 25.6514 28.2569C24.6928 27.6873 23.4682 28.8126 23.6905 29.6859C22.6545 30.1821 21.4557 30.9522 20.5566 31.5297C19.6575 32.1073 18.8398 32.5479 18.0221 32.9885C18.2583 30.7199 18.6314 28.5327 18.8676 26.2642C18.8934 25.9089 18.8379 25.6906 18.7823 25.4723C19.6 25.0317 20.0327 23.9917 19.2368 23.1482C17.1787 20.9987 15.2575 18.9306 13.3621 16.5072C16.1189 15.9217 19.1238 15.8543 22.2656 15.8682C22.9504 16.2751 23.9606 16.1342 24.175 15.1497C24.6851 13.0439 25.0582 10.8568 25.5683 8.75097C27.3268 11.093 28.7299 13.4092 30.1887 15.9437Z" fill="white"/>
<path d="M26.9764 44.4246C25.2297 57.6548 32.7675 69.9166 42.6653 78.207C47.1885 81.8212 53.8393 84.6615 59.7379 84.0899L59.7935 84.3083C62.9749 93.6108 73.4939 100.232 81.5995 104.678C89.3498 109.098 98.7356 112.637 106.853 107.084C108.133 106.177 107.004 104.023 105.587 104.849C95.83 110.354 85.0668 104.144 76.7648 98.4696C73.2856 96.2168 69.9691 93.6902 67.1151 90.6972C65.7159 89.3099 64.3425 87.5673 63.3243 85.8504C62.8023 85.1697 62.4987 84.4333 62.2764 83.56C65.4957 82.5082 68.2445 80.065 69.8383 75.8236C70.1083 75.0575 69.0683 74.6249 68.6058 75.0913C68.5979 73.2336 67.2801 71.7093 64.7118 71.6656C59.0831 71.471 58.2633 77.84 59.1564 82.262C51.6998 82.6489 42.7646 75.8571 38.0966 70.3037C31.7812 62.845 28.0302 54.5011 28.5344 44.6092C28.6674 43.7617 27.1094 43.5771 26.9764 44.4246ZM66.1308 77.6972C65.9681 77.9711 66.0792 78.4077 66.4345 78.4335C65.1027 80.0511 63.5228 81.1506 61.9132 81.6765C60.5358 79.0051 61.9232 77.6058 66.1308 77.6972Z" fill="white"/>
</g>
</svg>
