<svg width="154" height="155" viewBox="0 0 154 155" fill="none" xmlns="http://www.w3.org/2000/svg">
<g opacity="0.1">
<path d="M142.474 133.843C139.569 129.433 136.264 125.288 132.342 121.778C132.743 121.514 133.252 121.064 133.203 120.292C133.652 116.087 134.287 111.99 134.736 107.786C134.824 106.348 133.044 105.567 131.949 106.173C129.652 107.571 127.246 109.156 124.949 110.554C123.345 111.611 121.85 112.481 120.51 113.938C117.381 111.631 113.958 109.402 110.722 107.281C109.421 106.528 108.111 107.506 108.131 108.757C107.76 113.255 107.975 117.597 109.149 121.996C109.228 122.29 109.492 122.691 109.677 122.798C104.955 124.529 100.839 127.356 96.7229 130.182C95.6278 130.789 95.2174 132.783 96.8113 133.458C101.857 135.882 107.176 136.976 112.505 136.34C114.344 140.877 117.17 144.993 120.505 148.659C121.219 149.568 122.979 149.099 123.145 147.955C123.936 144.444 124.728 140.934 125.334 137.316C130.575 138.117 135.982 137.774 141.047 136.737C142.406 136.532 143.188 134.752 142.474 133.843ZM114.353 134.433C114.411 133.475 113.883 132.673 112.632 132.693C108.955 133.045 105.23 132.625 101.749 131.355C105.357 128.978 108.778 126.494 111.672 123.209C111.887 122.837 111.809 122.544 111.623 122.436C111.731 122.25 111.946 121.879 111.868 121.585C111.486 118.388 111.397 115.113 111.495 111.945C114.252 114.037 117.303 116.05 120.276 117.771C121.577 118.524 123.209 116.988 122.896 115.815C124.285 115.13 125.888 114.074 127.091 113.282C128.293 112.49 129.388 111.883 130.483 111.277C130.2 114.338 129.731 117.291 129.448 120.351C129.419 120.83 129.497 121.124 129.575 121.417C128.48 122.023 127.913 123.431 128.999 124.556C131.805 127.42 134.426 130.177 137.018 133.413C133.312 134.245 129.264 134.382 125.03 134.412C124.101 133.875 122.742 134.08 122.469 135.41C121.814 138.255 121.345 141.208 120.69 144.054C118.284 140.925 116.358 137.826 114.353 134.433Z" fill="white"/>
<path d="M118.237 96.0054C120.386 78.1508 110.039 61.745 96.5735 50.7272C90.4226 45.9271 81.4167 42.203 73.4772 43.0645L73.3989 42.7711C68.9679 30.2855 54.6911 21.5264 43.7 15.6612C33.1881 9.82526 20.4861 5.20205 9.6337 12.8107C7.92275 14.0527 9.47781 16.9369 11.3746 15.8024C24.4367 8.23265 39.0361 16.4343 50.311 23.9519C55.0341 26.9335 59.5421 30.2867 63.4342 34.2755C65.3411 36.1233 67.2188 38.4502 68.6173 40.7478C69.3312 41.657 69.7518 42.6445 70.0648 43.8178C65.7432 45.2851 62.077 48.6198 59.9951 54.3597C59.6432 55.3962 61.0513 55.9631 61.6672 55.3274C61.7067 57.8306 63.5061 59.8641 66.9674 59.8832C74.5551 60.0582 75.561 51.4633 74.2891 45.5186C84.3308 44.8817 96.4761 53.8952 102.852 61.306C111.478 71.2586 116.661 82.4438 116.135 95.7808C115.969 96.9248 118.071 97.1494 118.237 96.0054ZM64.9619 51.7777C65.1769 51.4061 65.0204 50.8194 64.5413 50.7902C66.3108 48.5899 68.4226 47.0838 70.5834 46.3502C72.4808 49.9286 70.633 51.8356 64.9619 51.7777Z" fill="white"/>
</g>
</svg>
