<svg width="171" height="63" viewBox="0 0 171 63" fill="none" xmlns="http://www.w3.org/2000/svg">
<path fill-rule="evenodd" clip-rule="evenodd" d="M61.5859 3.01641C61.6341 3.01755 61.6821 3.00886 61.727 2.99086C61.7718 2.97286 61.8125 2.94594 61.8466 2.91171C61.8808 2.87748 61.9076 2.83666 61.9256 2.79172C61.9435 2.74679 61.9522 2.69867 61.9511 2.65027C61.9511 2.60239 61.9416 2.55498 61.9232 2.51079C61.9048 2.4666 61.8778 2.42651 61.8439 2.39284C61.8099 2.35917 61.7696 2.3326 61.7253 2.31465C61.681 2.29671 61.6336 2.28775 61.5859 2.2883H58.8633C58.7532 2.2883 58.6476 2.33214 58.5698 2.41016C58.492 2.48819 58.4482 2.59402 58.4482 2.70436V8.44185C58.4493 8.56069 58.4969 8.67435 58.5807 8.75838C58.6646 8.84242 58.7779 8.89011 58.8965 8.89119H60.2661C61.8141 8.89119 62.3661 7.92593 62.3661 6.88162C62.3661 5.60847 61.5361 4.90533 60.2661 4.90533H59.1953V3.01641H61.5859ZM59.1911 8.16309V5.63759H60.2619C61.1501 5.63759 61.6149 6.05366 61.6149 6.88578C61.6149 7.50987 61.3617 8.15893 60.2619 8.15893L59.1911 8.16309ZM67.7158 8.59995V2.65027C67.7137 2.55352 67.6738 2.46145 67.6048 2.3938C67.5357 2.32615 67.443 2.28828 67.3465 2.2883H64.6405C64.5454 2.2894 64.4546 2.32802 64.3878 2.39578C64.321 2.46355 64.2835 2.55499 64.2835 2.65027L63.9474 7.36425C63.9017 7.95506 63.7523 8.23798 63.4161 8.23798C63.275 8.23798 63.275 8.20885 63.1547 8.20885C63.1057 8.20718 63.057 8.21626 63.0119 8.23544C62.9668 8.25463 62.9264 8.28346 62.8936 8.31992C62.8608 8.35638 62.8363 8.39959 62.8219 8.44652C62.8075 8.49346 62.8035 8.54298 62.8102 8.59163C62.8102 8.95776 63.1547 8.96608 63.5199 8.96608C64.2835 8.96608 64.6197 8.31287 64.6861 7.30184L64.9725 3.00809H66.9729V8.59995C66.9723 8.6489 66.9817 8.69747 67.0003 8.74271C67.019 8.78794 67.0466 8.82892 67.0815 8.86314C67.1165 8.89737 67.1579 8.92414 67.2035 8.94183C67.249 8.95953 67.2976 8.96778 67.3465 8.96608C67.4434 8.96503 67.5361 8.92624 67.605 8.85792C67.6739 8.7896 67.7137 8.6971 67.7158 8.59995ZM69.791 7.40585H72.1525L72.5675 8.70397C72.5943 8.78129 72.6432 8.84899 72.7082 8.89857C72.7731 8.94816 72.8513 8.97743 72.9327 8.98273C72.9832 8.98683 73.034 8.98023 73.0818 8.96336C73.1296 8.94648 73.1734 8.91971 73.2102 8.88479C73.247 8.84986 73.276 8.80756 73.2954 8.76064C73.3148 8.71371 73.3242 8.66322 73.3229 8.61243C73.3277 8.5654 73.3277 8.518 73.3229 8.47097L71.4594 2.7002C71.3681 2.40896 71.2436 2.20093 70.9655 2.20093C70.6874 2.20093 70.5505 2.41728 70.4799 2.7002L68.6621 8.47097C68.6482 8.51683 68.6412 8.56451 68.6413 8.61243C68.6409 8.66516 68.6518 8.71737 68.6731 8.76556C68.6945 8.81376 68.7258 8.85682 68.7651 8.89188C68.8044 8.92694 68.8507 8.95318 68.901 8.96885C68.9512 8.98451 69.0042 8.98925 69.0564 8.98273C69.1357 8.9751 69.2111 8.94476 69.2736 8.89533C69.3362 8.8459 69.3832 8.77947 69.4091 8.70397L69.7993 7.40585H69.791ZM70.9697 3.5032L71.9284 6.65694H70.0026L70.9697 3.5032ZM74.9622 3.01641H77.1743C77.2224 3.01697 77.2702 3.00788 77.3147 2.98967C77.3593 2.97147 77.3998 2.94452 77.4338 2.91041C77.4678 2.8763 77.4947 2.83572 77.5129 2.79104C77.531 2.74637 77.5401 2.69851 77.5396 2.65027C77.5385 2.55389 77.4995 2.46183 77.4311 2.39406C77.3627 2.3263 77.2705 2.28829 77.1743 2.2883H74.6385C74.5284 2.2883 74.4229 2.33214 74.345 2.41016C74.2672 2.48819 74.2235 2.59402 74.2235 2.70436V8.59995C74.2235 8.69926 74.2628 8.79451 74.3329 8.86473C74.4029 8.93495 74.4979 8.97441 74.597 8.97441C74.6961 8.97441 74.7911 8.93495 74.8611 8.86473C74.9312 8.79451 74.9705 8.69926 74.9705 8.59995V3.01641H74.9622ZM80.0588 8.98273C81.4865 8.98273 82.2045 7.91761 82.2045 6.59037V4.57664C82.2045 3.27437 81.5985 2.18845 80.0588 2.18845C78.519 2.18845 77.9089 3.28685 77.9089 4.57664V6.57789C77.9089 7.90513 78.6269 8.97025 80.0546 8.97025L80.0588 8.98273ZM80.0588 2.9332C81.0839 2.9332 81.4574 3.59473 81.4574 4.59744V6.5987C81.4574 7.5806 81.0175 8.26294 80.0588 8.26294C79.1001 8.26294 78.656 7.5806 78.656 6.5987V4.57664C78.656 3.58225 79.0295 2.91239 80.0588 2.91239V2.9332ZM84.317 8.61243C84.317 8.71175 84.3563 8.80699 84.4264 8.87721C84.4964 8.94744 84.5914 8.98689 84.6905 8.98689C84.7896 8.98689 84.8846 8.94744 84.9546 8.87721C85.0247 8.80699 85.064 8.71175 85.064 8.61243V3.02473H86.3257C86.4238 3.0259 86.5185 2.98879 86.5897 2.92123C86.661 2.85368 86.7032 2.76098 86.7075 2.66276C86.7032 2.56415 86.6611 2.47101 86.59 2.40279C86.5188 2.33456 86.4242 2.29653 86.3257 2.29662H83.047C82.9523 2.30552 82.8635 2.34673 82.7955 2.41338C82.7275 2.48003 82.6844 2.56806 82.6735 2.66276C82.674 2.71119 82.6841 2.75904 82.7032 2.80353C82.7223 2.84802 82.7501 2.88827 82.7848 2.92194C82.8196 2.9556 82.8606 2.98203 82.9056 2.99967C82.9506 3.01732 82.9987 3.02583 83.047 3.02473H84.317V8.61243ZM88.3759 5.10088V3.02057H89.621C90.4511 3.02057 90.7416 3.49072 90.7416 3.98583C90.7345 4.14433 90.6952 4.29972 90.6263 4.44253C90.5573 4.58534 90.4601 4.71258 90.3405 4.81651C90.2209 4.92044 90.0814 4.99888 89.9306 5.04705C89.7798 5.09522 89.6208 5.11212 89.4633 5.09671L88.3759 5.10088ZM89.4758 5.82482C90.3058 5.82482 90.9035 6.24088 90.9035 7.02308C90.9035 7.69294 90.4469 8.15477 89.5131 8.15477H88.3759V5.82482H89.4758ZM89.6169 8.88287C90.862 8.88287 91.6505 8.05075 91.6505 7.0106C91.6505 5.97044 90.8952 5.68336 90.2726 5.48781C90.9616 5.19657 91.4762 4.79299 91.4762 3.98999C91.4783 3.75482 91.4313 3.52182 91.3381 3.30597C91.245 3.09012 91.1078 2.89621 90.9354 2.73671C90.763 2.57721 90.5592 2.45565 90.3371 2.37985C90.115 2.30406 89.8796 2.27571 89.6459 2.29662H88.0688C87.9499 2.29662 87.8359 2.34396 87.7519 2.42823C87.6678 2.5125 87.6206 2.62679 87.6206 2.74597V8.44185C87.6206 8.56102 87.6678 8.67531 87.7519 8.75958C87.8359 8.84385 87.9499 8.89119 88.0688 8.89119L89.6169 8.88287ZM94.5723 8.97441C96 8.97441 96.718 7.90929 96.718 6.58205V4.57664C96.718 3.27437 96.1121 2.18845 94.5723 2.18845C93.0326 2.18845 92.4266 3.28685 92.4266 4.57664V6.57789C92.4266 7.90513 93.1446 8.97025 94.5723 8.97025V8.97441ZM94.5723 2.92488C95.5974 2.92488 95.971 3.58641 95.971 4.58912V6.59037C95.971 7.57228 95.5352 8.25462 94.5723 8.25462C93.6095 8.25462 93.1737 7.57228 93.1737 6.59037V4.57664C93.1737 3.58225 93.5472 2.91239 94.5723 2.91239V2.92488ZM99.6481 6.44891C100.926 6.44891 101.748 5.71249 101.748 4.36861C101.748 3.27437 101.196 2.2883 99.6481 2.2883H98.2785C98.16 2.28939 98.0466 2.33708 97.9628 2.42111C97.8789 2.50515 97.8314 2.61881 97.8303 2.73765V8.59163C97.8248 8.64384 97.8303 8.69662 97.8464 8.74656C97.8626 8.7965 97.889 8.84247 97.9241 8.8815C97.9591 8.92053 98.0019 8.95174 98.0498 8.9731C98.0976 8.99446 98.1494 9.0055 98.2017 9.0055C98.2541 9.0055 98.3059 8.99446 98.3537 8.9731C98.4016 8.95174 98.4444 8.92053 98.4794 8.8815C98.5144 8.84247 98.5409 8.7965 98.557 8.74656C98.5732 8.69662 98.5787 8.64384 98.5732 8.59163V6.45724L99.6481 6.44891ZM98.5732 3.01641H99.6481C100.748 3.01641 101.001 3.69875 101.001 4.37277C101.001 5.29226 100.536 5.72081 99.6481 5.72081H98.5732V3.02473V3.01641ZM103.184 8.97441C103.26 8.97382 103.335 8.9541 103.402 8.91703C103.469 8.87996 103.525 8.82674 103.566 8.76221L106.16 3.82357V8.59995C106.162 8.7008 106.203 8.79694 106.274 8.86826C106.345 8.93959 106.441 8.9806 106.542 8.98273C106.591 8.98165 106.639 8.97089 106.684 8.95106C106.729 8.93124 106.77 8.90274 106.803 8.86719C106.837 8.83165 106.864 8.78975 106.882 8.7439C106.899 8.69804 106.908 8.64913 106.907 8.59995V2.61283C106.907 2.50248 106.863 2.39666 106.785 2.31863C106.708 2.2406 106.602 2.19677 106.492 2.19677C106.413 2.19684 106.335 2.21762 106.267 2.25704C106.199 2.29645 106.142 2.35313 106.102 2.42144L103.508 7.35177V2.58787C103.501 2.48815 103.459 2.39417 103.389 2.32312C103.319 2.25208 103.225 2.2087 103.126 2.20093C103.027 2.20419 102.932 2.24666 102.864 2.31911C102.796 2.39157 102.759 2.48814 102.761 2.58787V8.57083C102.761 8.68117 102.805 8.787 102.882 8.86503C102.96 8.94305 103.066 8.98689 103.176 8.98689L103.184 8.97441ZM109.464 8.60411C109.464 8.70342 109.503 8.79867 109.573 8.86889C109.643 8.93912 109.738 8.97857 109.837 8.97857C109.936 8.97857 110.031 8.93912 110.101 8.86889C110.171 8.79867 110.211 8.70342 110.211 8.60411V3.02473H111.481C111.579 3.0259 111.673 2.98879 111.745 2.92123C111.816 2.85368 111.858 2.76098 111.862 2.66276C111.858 2.56415 111.816 2.47101 111.745 2.40279C111.674 2.33456 111.579 2.29653 111.481 2.29662H108.194C108.099 2.30552 108.01 2.34673 107.942 2.41338C107.874 2.48003 107.831 2.56806 107.82 2.66276C107.821 2.71119 107.831 2.75904 107.85 2.80353C107.869 2.84802 107.897 2.88827 107.931 2.92194C107.966 2.9556 108.007 2.98203 108.052 2.99967C108.097 3.01732 108.145 3.02583 108.194 3.02473H109.464V8.61243V8.60411ZM116.208 8.50842C116.201 8.41388 116.159 8.32538 116.09 8.26114C116.02 8.1969 115.929 8.16181 115.834 8.16309H113.518V5.94548H115.56C115.608 5.94604 115.656 5.93695 115.701 5.91875C115.745 5.90054 115.786 5.8736 115.82 5.83948C115.854 5.80537 115.881 5.76479 115.899 5.72012C115.917 5.67544 115.926 5.62758 115.926 5.57935C115.923 5.48291 115.884 5.39101 115.816 5.3228C115.748 5.25459 115.657 5.21533 115.56 5.21321H113.518V3.02473H115.739C115.787 3.02697 115.835 3.01951 115.879 3.00279C115.924 2.98608 115.966 2.96045 116 2.92744C116.035 2.89443 116.063 2.85472 116.082 2.81067C116.102 2.76662 116.112 2.71915 116.112 2.67108C116.112 2.6219 116.103 2.57321 116.084 2.52778C116.065 2.48235 116.038 2.44107 116.003 2.4063C115.968 2.37153 115.927 2.34394 115.882 2.32513C115.836 2.30631 115.788 2.29662 115.739 2.29662H113.211C113.096 2.29977 112.985 2.34725 112.904 2.42928C112.822 2.51132 112.774 2.62167 112.771 2.73765V8.45017C112.771 8.78718 113.054 8.89119 113.361 8.89119H115.851C115.9 8.89065 115.949 8.88032 115.995 8.86079C116.041 8.84126 116.082 8.81291 116.117 8.77736C116.151 8.74182 116.179 8.69977 116.197 8.65363C116.216 8.60748 116.225 8.55814 116.224 8.50842H116.208ZM121.516 8.59995V2.65027C121.513 2.55314 121.472 2.46107 121.402 2.39353C121.333 2.32598 121.239 2.28825 121.142 2.2883H118.436C118.39 2.28884 118.343 2.29864 118.3 2.31712C118.257 2.33561 118.218 2.36242 118.185 2.39604C118.153 2.42965 118.127 2.4694 118.109 2.51302C118.092 2.55665 118.083 2.60328 118.084 2.65027L117.748 7.36425C117.698 7.95506 117.548 8.23798 117.212 8.23798C117.075 8.23798 117.075 8.20885 116.951 8.20885C116.902 8.20789 116.854 8.21744 116.809 8.23687C116.764 8.25629 116.724 8.28512 116.691 8.32142C116.659 8.35772 116.634 8.40063 116.619 8.44725C116.605 8.49387 116.6 8.54311 116.606 8.59163C116.606 8.95776 116.951 8.96608 117.316 8.96608C118.084 8.96608 118.416 8.31287 118.482 7.30184L118.773 3.00809H120.773V8.59995C120.772 8.6489 120.782 8.69747 120.8 8.74271C120.819 8.78794 120.847 8.82892 120.882 8.86314C120.917 8.89737 120.958 8.92414 121.004 8.94183C121.049 8.95953 121.098 8.96778 121.147 8.96608C121.244 8.96507 121.337 8.92642 121.407 8.8582C121.476 8.78999 121.517 8.69747 121.52 8.59995H121.516ZM123.633 4.7181V2.59619C123.633 2.49687 123.593 2.40163 123.523 2.33141C123.453 2.26118 123.358 2.22173 123.259 2.22173C123.16 2.22173 123.065 2.26118 122.995 2.33141C122.925 2.40163 122.886 2.49687 122.886 2.59619V8.44185C122.888 8.56035 122.936 8.67341 123.019 8.75722C123.103 8.84103 123.216 8.88906 123.334 8.89119H124.708C126.256 8.89119 126.808 7.88017 126.808 6.78592C126.808 5.45869 125.978 4.70562 124.708 4.70562L123.633 4.7181ZM123.633 5.45037H124.708C125.592 5.45037 126.061 5.86643 126.061 6.79425C126.061 7.46826 125.807 8.16309 124.708 8.16309H123.637V5.45037H123.633ZM131.933 8.59995V2.57538C131.933 2.47607 131.894 2.38083 131.824 2.3106C131.754 2.24038 131.659 2.20093 131.56 2.20093C131.461 2.20093 131.366 2.24038 131.296 2.3106C131.225 2.38083 131.186 2.47607 131.186 2.57538V5.22569H128.638V2.57538C128.638 2.47607 128.599 2.38083 128.528 2.3106C128.458 2.24038 128.363 2.20093 128.264 2.20093C128.165 2.20093 128.07 2.24038 128 2.3106C127.93 2.38083 127.891 2.47607 127.891 2.57538V8.59995C127.891 8.69926 127.93 8.79451 128 8.86473C128.07 8.93495 128.165 8.97441 128.264 8.97441C128.363 8.97441 128.458 8.93495 128.528 8.86473C128.599 8.79451 128.638 8.69926 128.638 8.59995V5.9538H131.186V8.59995C131.187 8.69973 131.227 8.79525 131.296 8.86657C131.366 8.9379 131.46 8.97951 131.56 8.98273C131.659 8.98055 131.754 8.93927 131.824 8.86771C131.894 8.79616 131.933 8.70004 131.933 8.59995ZM134.05 4.7181V2.59619C134.05 2.49687 134.01 2.40163 133.94 2.33141C133.87 2.26118 133.775 2.22173 133.676 2.22173C133.577 2.22173 133.482 2.26118 133.412 2.33141C133.342 2.40163 133.303 2.49687 133.303 2.59619V8.44185C133.305 8.56035 133.353 8.67341 133.436 8.75722C133.52 8.84103 133.633 8.88906 133.751 8.89119H135.125C136.673 8.89119 137.221 7.88017 137.221 6.78592C137.221 5.45869 136.391 4.70562 135.125 4.70562L134.05 4.7181ZM134.05 5.45037H135.125C136.009 5.45037 136.474 5.86643 136.474 6.79425C136.474 7.46826 136.225 8.16309 135.125 8.16309H134.054V5.45037H134.05ZM137.951 8.61243C137.951 8.71175 137.99 8.80699 138.06 8.87721C138.131 8.94744 138.226 8.98689 138.325 8.98689C138.424 8.98689 138.519 8.94744 138.589 8.87721C138.659 8.80699 138.698 8.71175 138.698 8.61243V2.57538C138.698 2.47607 138.659 2.38083 138.589 2.3106C138.519 2.24038 138.424 2.20093 138.325 2.20093C138.226 2.20093 138.131 2.24038 138.06 2.3106C137.99 2.38083 137.951 2.47607 137.951 2.57538V8.61243ZM140.479 8.98273C140.369 8.98273 140.263 8.93889 140.185 8.86087C140.107 8.78284 140.064 8.67701 140.064 8.56667V2.58787C140.061 2.48814 140.098 2.39157 140.167 2.31911C140.235 2.24666 140.329 2.20419 140.429 2.20093C140.528 2.2087 140.621 2.25208 140.692 2.32312C140.762 2.39417 140.804 2.48815 140.811 2.58787V7.35593L143.405 2.4256C143.444 2.35729 143.501 2.30061 143.57 2.2612C143.638 2.22178 143.716 2.20101 143.795 2.20093C143.905 2.20093 144.01 2.24476 144.088 2.32279C144.166 2.40082 144.21 2.50664 144.21 2.61699V8.59995C144.211 8.64913 144.202 8.69804 144.184 8.7439C144.167 8.78975 144.14 8.83165 144.106 8.86719C144.072 8.90274 144.032 8.93124 143.987 8.95106C143.942 8.97089 143.894 8.98165 143.844 8.98273C143.744 8.9806 143.648 8.93959 143.577 8.86826C143.506 8.79694 143.465 8.7008 143.463 8.59995V3.83189L140.869 8.77054C140.828 8.83506 140.771 8.88829 140.705 8.92535C140.638 8.96242 140.563 8.98214 140.487 8.98273H140.479ZM142.139 1.07756C142.013 1.07396 141.891 1.038 141.783 0.973134C141.676 0.908273 141.586 0.816705 141.524 0.707268C141.494 0.660534 141.452 0.62231 141.403 0.596131C141.353 0.569951 141.298 0.55666 141.242 0.557486C141.2 0.554164 141.157 0.561859 141.118 0.579831C141.08 0.597803 141.046 0.625451 141.021 0.66012C140.996 0.69479 140.98 0.735318 140.976 0.777817C140.971 0.820316 140.977 0.863359 140.993 0.902817C141.08 1.13078 141.236 1.32625 141.438 1.46252C141.64 1.59879 141.879 1.66922 142.122 1.66421C142.366 1.67263 142.606 1.60404 142.808 1.46815C143.011 1.33225 143.166 1.13594 143.251 0.906977C143.27 0.868008 143.278 0.824642 143.275 0.781438C143.271 0.738234 143.256 0.696788 143.231 0.661455C143.206 0.626121 143.172 0.598207 143.132 0.580644C143.093 0.563081 143.049 0.556518 143.006 0.561647C142.951 0.561138 142.897 0.574599 142.848 0.600782C142.799 0.626964 142.758 0.665022 142.728 0.711429C142.667 0.821254 142.58 0.913932 142.474 0.980852C142.368 1.04777 142.247 1.08676 142.122 1.09421L142.139 1.07756ZM150.8 8.61243C150.8 8.71175 150.84 8.80699 150.91 8.87721C150.98 8.94744 151.075 8.98689 151.174 8.98689C151.273 8.98689 151.368 8.94744 151.438 8.87721C151.508 8.80699 151.547 8.71175 151.547 8.61243V7.39337H152.153C153.432 7.39337 154.253 6.65695 154.253 5.31307C154.253 4.21883 153.701 3.21196 152.153 3.21196H151.547V2.57538C151.548 2.52605 151.539 2.47711 151.52 2.43143C151.502 2.38575 151.474 2.34424 151.439 2.30936C151.404 2.27448 151.363 2.24692 151.318 2.2283C151.272 2.20968 151.223 2.20037 151.174 2.20093C151.078 2.21015 150.988 2.25256 150.92 2.32089C150.852 2.38922 150.81 2.4792 150.8 2.57538V3.22444H150.194C148.642 3.22444 148.094 4.23131 148.094 5.32555C148.094 6.65694 148.924 7.40585 150.194 7.40585H150.8V8.61243ZM152.153 3.95255C153.253 3.95255 153.506 4.64321 153.506 5.31723C153.506 6.23256 153.037 6.66527 152.153 6.66527H151.547V3.95255H152.153ZM150.194 6.65694C149.306 6.65694 148.841 6.24088 148.841 5.30891C148.841 4.63489 149.09 3.94422 150.194 3.94422H150.8V6.65694H150.194ZM157.25 8.97441C158.678 8.97441 159.396 7.90929 159.396 6.58205V4.57664C159.396 3.27437 158.79 2.18845 157.25 2.18845C155.71 2.18845 155.092 3.28685 155.092 4.57664V6.57789C155.092 7.90513 155.81 8.97025 157.237 8.97025L157.25 8.97441ZM157.25 2.92488C158.275 2.92488 158.649 3.58641 158.649 4.58912V6.59037C158.649 7.57228 158.213 8.25462 157.25 8.25462C156.287 8.25462 155.851 7.57228 155.851 6.59037V4.57664C155.851 3.58225 156.225 2.91239 157.25 2.91239V2.92488ZM164.546 8.59163V2.57538C164.546 2.47607 164.507 2.38083 164.437 2.3106C164.367 2.24038 164.272 2.20093 164.173 2.20093C164.074 2.20093 163.979 2.24038 163.908 2.3106C163.838 2.38083 163.799 2.47607 163.799 2.57538V5.22569H161.255V2.57538C161.255 2.47607 161.216 2.38083 161.146 2.3106C161.075 2.24038 160.98 2.20093 160.881 2.20093C160.782 2.20093 160.687 2.24038 160.617 2.3106C160.547 2.38083 160.508 2.47607 160.508 2.57538V8.59995C160.508 8.69926 160.547 8.79451 160.617 8.86473C160.687 8.93495 160.782 8.97441 160.881 8.97441C160.98 8.97441 161.075 8.93495 161.146 8.86473C161.216 8.79451 161.255 8.69926 161.255 8.59995V5.9538H163.799V8.59995C163.8 8.69973 163.84 8.79525 163.909 8.86657C163.979 8.9379 164.073 8.97951 164.173 8.98273C164.222 8.98218 164.271 8.97185 164.317 8.95232C164.362 8.93279 164.404 8.90444 164.438 8.8689C164.473 8.83335 164.5 8.79131 164.519 8.74516C164.537 8.69902 164.547 8.64967 164.546 8.59995V8.59163ZM169.842 2.2883H167.136C167.089 2.28884 167.043 2.29864 167 2.31712C166.957 2.33561 166.917 2.36242 166.885 2.39604C166.852 2.42965 166.826 2.4694 166.809 2.51302C166.791 2.55665 166.783 2.60328 166.783 2.65027L166.642 5.68336C166.588 6.86081 166.418 7.7387 166.111 8.17973H165.841C165.633 8.17973 165.476 8.3836 165.476 8.65404V9.8523C165.476 9.9494 165.514 10.0425 165.583 10.1112C165.651 10.1799 165.744 10.2184 165.841 10.2184C165.938 10.2184 166.031 10.1799 166.099 10.1112C166.168 10.0425 166.206 9.9494 166.206 9.8523V8.89119H170.087V9.83565C170.086 9.88369 170.094 9.93146 170.112 9.97611C170.13 10.0208 170.156 10.0614 170.19 10.0956C170.223 10.1297 170.264 10.1567 170.308 10.175C170.352 10.1932 170.4 10.2024 170.448 10.2018C170.497 10.204 170.547 10.1962 170.593 10.1789C170.64 10.1616 170.682 10.135 170.718 10.1008C170.754 10.0667 170.783 10.0256 170.803 9.98002C170.823 9.93446 170.833 9.88536 170.834 9.83565V8.6374C170.842 8.58046 170.838 8.52244 170.823 8.46702C170.807 8.4116 170.781 8.35997 170.745 8.3154C170.708 8.27083 170.663 8.23428 170.612 8.20806C170.561 8.18185 170.505 8.16653 170.448 8.16309H170.215V2.65027C170.213 2.55279 170.173 2.4601 170.103 2.39233C170.033 2.32456 169.939 2.28718 169.842 2.2883ZM167.389 5.68336L167.485 3.01641H169.468V8.16309H166.841C167.215 7.38487 167.404 6.53041 167.393 5.66672L167.389 5.68336Z" fill="#1D1D1B"/>
<path fill-rule="evenodd" clip-rule="evenodd" d="M46.8108 39.5296C45.8147 42.0259 44.5655 44.4308 42.6605 46.3363L27.678 61.3562L26.0178 63.0204L7.59059 44.5223C2.86742 39.7634 0.147756 33.3677 -0.00671389 26.6563C-0.161184 19.9449 2.26134 13.4304 6.76053 8.45811L7.59059 7.62599C12.4848 2.74934 19.1049 0.012146 26.0054 0.012146C32.9059 0.012146 39.526 2.74934 44.4202 7.62599C48.3423 11.579 50.9049 16.6827 51.7356 22.1957C52.5663 27.7086 51.6218 33.3434 49.0395 38.2814C50.349 34.7083 50.615 30.835 49.8064 27.1158C48.9978 23.3965 47.1481 19.9855 44.4742 17.2828C36.5388 9.21534 24.3038 9.30688 16.3435 17.2828C13.7683 19.8953 12.3262 23.4215 12.3308 27.0945C12.3355 30.7674 13.7866 34.2899 16.3684 36.8959L25.084 45.6332L32.7828 37.9527C33.901 36.8406 34.5338 35.3295 34.5425 33.7505C34.5408 32.2017 33.9467 30.7126 32.8824 29.5899C32.8451 29.5524 32.8119 29.515 32.7745 29.4817C31.6407 28.3516 30.1069 27.7172 28.508 27.7172C26.9092 27.7172 25.3753 28.3516 24.2415 29.4817L18.9831 34.749L18.6303 34.3954C15.3101 31.0669 14.8951 25.3544 17.4807 21.6473C28.4084 5.61641 54.5718 20.0745 46.8108 39.5296Z" fill="#FFD600"/>
<path d="M61.4865 23.778H66.0311C66.2221 23.7903 66.4137 23.764 66.5943 23.7004C66.7749 23.6369 66.9409 23.5375 67.0824 23.4081C67.2238 23.2788 67.3377 23.1222 67.4174 22.9476C67.497 22.7731 67.5408 22.5843 67.5459 22.3925C67.5287 22.0055 67.36 21.6408 67.0764 21.3776C66.7929 21.1144 66.4173 20.9738 66.0311 20.9862H60.063C59.6442 20.9756 59.2376 21.1277 58.9282 21.4108C58.6188 21.6938 58.4306 22.0858 58.4029 22.5048V35.2654C58.4314 35.6541 58.6056 36.0177 58.8904 36.283C59.1752 36.5483 59.5496 36.6957 59.9385 36.6957C60.3273 36.6957 60.7017 36.5483 60.9865 36.283C61.2714 36.0177 61.4455 35.6541 61.4741 35.2654V23.778H61.4865ZM78.8555 35.0699C78.8237 34.6881 78.6464 34.3332 78.3604 34.0791C78.0744 33.8249 77.7018 33.691 77.3199 33.7052H72.5304V30.1187H76.6807C76.8729 30.1282 77.0651 30.099 77.2458 30.0328C77.4266 29.9666 77.5923 29.8647 77.7331 29.7333C77.8739 29.6018 77.9871 29.4433 78.0658 29.2673C78.1445 29.0912 78.1872 28.9012 78.1914 28.7083C78.1658 28.3261 77.994 27.9686 77.7117 27.7104C77.4294 27.4522 77.0585 27.3134 76.6766 27.3228H72.5263V23.778H77.0916C77.2821 23.7909 77.4733 23.7658 77.6541 23.7039C77.8348 23.6421 78.0015 23.5449 78.1444 23.4179C78.2873 23.2909 78.4035 23.1367 78.4864 22.9642C78.5693 22.7917 78.6172 22.6045 78.6272 22.4133C78.6068 22.0219 78.435 21.6538 78.1482 21.3874C77.8615 21.1209 77.4825 20.977 77.0916 20.9862H71.1442C70.7163 20.9779 70.3018 21.1355 69.987 21.4262C69.6723 21.7169 69.4817 22.1182 69.4551 22.5464V34.9492C69.4551 36.1391 70.4221 36.5094 71.497 36.5094H77.3074C77.6992 36.5219 78.08 36.379 78.3674 36.1119C78.6549 35.8448 78.8257 35.4749 78.843 35.0823L78.8555 35.0699ZM86.0562 36.6967C89.8537 36.6967 91.7628 34.1212 91.7628 30.9093V26.5531C91.7628 23.4285 90.1608 20.7865 86.0562 20.7865C81.9516 20.7865 80.3496 23.4285 80.3496 26.5531V30.9093C80.3496 34.1212 82.2587 36.6967 86.0562 36.6967ZM86.0562 23.5824C87.9861 23.5824 88.6875 24.7682 88.6875 26.5531V30.9093C88.6875 32.6692 87.8574 33.9007 86.0562 33.9007C84.255 33.9007 83.4208 32.6526 83.4208 30.9093V26.5531C83.4208 24.7682 84.1222 23.5824 86.0562 23.5824ZM97.208 23.778H101.748C101.94 23.7909 102.131 23.765 102.312 23.7016C102.493 23.6383 102.659 23.5389 102.801 23.4095C102.942 23.28 103.056 23.1232 103.136 22.9484C103.215 22.7736 103.259 22.5845 103.263 22.3925C103.247 22.0051 103.079 21.6398 102.795 21.3764C102.511 21.1129 102.135 20.9727 101.748 20.9862H95.7762C95.3574 20.9756 94.9508 21.1277 94.6414 21.4108C94.332 21.6938 94.1438 22.0858 94.1161 22.5048V35.2654C94.1375 35.655 94.3102 36.0207 94.5972 36.2843C94.8842 36.5479 95.2626 36.6884 95.6517 36.6759C96.04 36.6843 96.4166 36.5424 96.7033 36.2798C96.99 36.0171 97.1648 35.6539 97.1914 35.2654V23.778H97.208ZM110.111 31.2047C113.51 31.2047 115.706 29.3781 115.706 26.1204C115.706 23.4368 114.237 20.9737 110.111 20.9737H106.882C106.446 20.959 106.022 21.1171 105.701 21.4138C105.38 21.7105 105.189 22.1218 105.168 22.5589V35.2446C105.189 35.6396 105.36 36.0116 105.646 36.2839C105.932 36.5563 106.311 36.7081 106.706 36.7081C107.1 36.7081 107.48 36.5563 107.766 36.2839C108.052 36.0116 108.223 35.6396 108.244 35.2446V31.2047H110.111ZM108.244 23.7655H110.111C112.186 23.7655 112.635 24.9554 112.635 26.0996C112.635 27.6848 111.755 28.4087 110.111 28.4087H108.244V23.778V23.7655ZM119.528 33.4389H124.206L124.973 35.6607C125.098 35.9584 125.304 36.2142 125.569 36.3978C125.834 36.5814 126.146 36.6851 126.468 36.6967C127.368 36.6967 128.049 36.1267 128.049 35.2904C128.047 35.126 128.025 34.9624 127.982 34.8036L123.679 22.2843C123.371 21.4023 122.936 20.7865 121.881 20.7865C120.827 20.7865 120.387 21.4231 120.101 22.2843L115.839 34.8036C115.794 34.962 115.772 35.1258 115.772 35.2904C115.781 35.4878 115.829 35.6814 115.914 35.8597C115.999 36.038 116.119 36.1975 116.266 36.3286C116.414 36.4598 116.586 36.5599 116.773 36.6231C116.959 36.6863 117.157 36.7113 117.354 36.6967C117.668 36.6796 117.971 36.5731 118.228 36.3896C118.484 36.2062 118.683 35.9534 118.802 35.6607L119.528 33.4389ZM123.417 30.9425H120.358L121.52 27.198C121.717 26.4921 121.856 25.7713 121.935 25.0428C122.015 25.7713 122.154 26.4921 122.35 27.198L123.471 30.9425H123.417ZM134.938 35.3029C134.973 35.6878 135.15 36.0458 135.434 36.3065C135.719 36.5672 136.09 36.7118 136.476 36.7118C136.861 36.7118 137.233 36.5672 137.518 36.3065C137.802 36.0458 137.979 35.6878 138.014 35.3029V33.285H138.781C142.185 33.285 144.38 31.4585 144.38 28.1799C144.38 25.4963 142.907 23.0083 138.781 23.0083H138.014V22.2177C138.008 22.023 137.964 21.8313 137.884 21.6541C137.803 21.4768 137.687 21.3177 137.544 21.1861C137.401 21.0544 137.233 20.9531 137.049 20.888C136.866 20.823 136.672 20.7955 136.478 20.8073C136.092 20.8087 135.721 20.9539 135.437 21.2146C135.152 21.4753 134.974 21.8329 134.938 22.2177V23.0083H134.17C130.045 23.0083 128.576 25.5046 128.576 28.1799C128.576 31.4585 130.767 33.285 134.17 33.285H134.938V35.3112V35.3029ZM138.777 25.7959C140.852 25.7959 141.301 27.0066 141.301 28.1508C141.301 29.7318 140.425 30.4599 138.777 30.4599H138.009V25.7959H138.777ZM134.166 30.4474C132.506 30.4474 131.643 29.7193 131.643 28.1383C131.643 26.9941 132.104 25.7834 134.166 25.7834H134.934V30.4474H134.166ZM148.165 36.6967C148.454 36.6964 148.739 36.6263 148.996 36.4923C149.252 36.3583 149.473 36.1644 149.639 35.927L154.714 27.044V35.2654C154.74 35.659 154.916 36.0276 155.206 36.2942C155.496 36.5608 155.877 36.705 156.271 36.6967C156.661 36.7079 157.039 36.5635 157.323 36.2951C157.607 36.0268 157.774 35.6565 157.786 35.2654V22.2843C157.784 22.0787 157.741 21.8755 157.659 21.6872C157.576 21.4989 157.457 21.3295 157.307 21.1893C157.157 21.049 156.98 20.941 156.787 20.8717C156.593 20.8025 156.388 20.7735 156.184 20.7865C155.886 20.7917 155.595 20.8704 155.335 21.0155C155.075 21.1607 154.855 21.3678 154.694 21.6186C152.739 25.0053 151.618 27.0274 149.597 30.5514V22.2302C149.57 21.8374 149.394 21.4699 149.104 21.2041C148.814 20.9383 148.433 20.7947 148.041 20.8031C147.651 20.7919 147.272 20.9363 146.988 21.2047C146.704 21.473 146.538 21.8433 146.526 22.2344V35.1988C146.53 35.4069 146.576 35.612 146.662 35.8015C146.747 35.9911 146.871 36.1612 147.024 36.3013C147.178 36.4415 147.358 36.5489 147.554 36.6168C147.75 36.6848 147.958 36.712 148.165 36.6967ZM160.525 25.6502C160.525 27.8304 161.666 29.2575 163.554 29.8733L160.57 34.4083C160.404 34.6805 160.312 34.992 160.305 35.3112C160.305 36.0809 161.313 36.6759 161.907 36.6759C162.163 36.6842 162.417 36.6257 162.644 36.5061C162.871 36.3865 163.063 36.2099 163.202 35.9935L166.841 30.2061H167.916V35.2446C167.941 35.6405 168.116 36.0118 168.406 36.282C168.695 36.5522 169.077 36.7006 169.473 36.6967C169.668 36.7022 169.862 36.6689 170.044 36.5988C170.226 36.5287 170.393 36.423 170.534 36.288C170.675 36.153 170.789 35.9913 170.867 35.8122C170.946 35.6331 170.988 35.4402 170.992 35.2446V22.5714C170.971 22.1438 170.788 21.7406 170.479 21.4454C170.169 21.1502 169.759 20.9857 169.332 20.9862H165.953C161.824 20.9862 160.508 23.3411 160.508 25.6502H160.525ZM163.6 25.6502C163.6 24.7266 164.015 23.778 165.837 23.778H167.945V27.431H165.704C164.343 27.431 163.6 26.7944 163.6 25.6502ZM63.2379 51.9037L63.4372 46.7113H66.8196V56.6593H62.2543C62.8911 55.1542 63.2267 53.5385 63.2421 51.9037H63.2379ZM58.9341 56.6593C58.7268 56.6623 58.5223 56.7073 58.3328 56.7915C58.1433 56.8758 57.9727 56.9975 57.8312 57.1494C57.6897 57.3013 57.5803 57.4803 57.5095 57.6756C57.4388 57.8709 57.408 58.0786 57.4192 58.2861V61.1028C57.4395 61.4913 57.6078 61.8571 57.8893 62.1249C58.1707 62.3927 58.544 62.542 58.932 62.542C59.3201 62.542 59.6933 62.3927 59.9748 62.1249C60.2563 61.8571 60.4245 61.4913 60.4448 61.1028V59.4386H68.2598V61.1028C68.2645 61.2959 68.3078 61.4861 68.3869 61.6621C68.4661 61.8382 68.5796 61.9966 68.7208 62.128C68.8619 62.2595 69.0279 62.3612 69.2089 62.4274C69.3899 62.4936 69.5822 62.5228 69.7746 62.5133C69.97 62.5256 70.1658 62.4987 70.3506 62.4341C70.5355 62.3696 70.7056 62.2686 70.8509 62.1372C70.9963 62.0058 71.114 61.8466 71.1972 61.669C71.2803 61.4914 71.3272 61.2989 71.3351 61.1028V58.2861C71.3351 57.429 70.8081 56.6593 69.8867 56.6593V45.5255C69.8662 45.0884 69.6749 44.677 69.3541 44.3804C69.0333 44.0837 68.6088 43.9256 68.1726 43.9403H62.1921C61.759 43.937 61.3409 44.099 61.0226 44.3934C60.7043 44.6878 60.5096 45.0925 60.478 45.5255L60.1501 51.8621C60.0381 54.1296 59.6438 55.8022 58.905 56.6593H58.9341ZM78.4031 59.6508C82.2006 59.6508 84.1097 57.0754 84.1097 53.8634V49.5114C84.1097 46.3867 82.5077 43.7447 78.4031 43.7447C74.2984 43.7447 72.6964 46.3867 72.6964 49.5114V53.8675C72.6964 57.0795 74.6056 59.6549 78.4031 59.6549V59.6508ZM78.4031 46.5365C80.333 46.5365 81.0385 47.7223 81.0385 49.5072V53.8634C81.0385 55.6233 80.2085 56.8548 78.4031 56.8548C76.5977 56.8548 75.7676 55.6067 75.7676 53.8634V49.5114C75.7676 47.7265 76.469 46.5407 78.4031 46.5407V46.5365ZM94.5352 46.7321C94.7251 46.7433 94.9152 46.7162 95.0943 46.6523C95.2735 46.5884 95.438 46.4891 95.5782 46.3603C95.7183 46.2314 95.8312 46.0757 95.9101 45.9023C95.989 45.7288 96.0324 45.5413 96.0376 45.3507C96.0214 44.9633 95.8531 44.5981 95.5693 44.3346C95.2855 44.0712 94.9093 43.9309 94.5228 43.9445H88.1147C87.696 43.9339 87.2894 44.086 86.98 44.369C86.6706 44.6521 86.4823 45.0441 86.4546 45.4631V57.8742C86.4762 58.3105 86.668 58.7208 86.9887 59.0166C87.3093 59.3124 87.7332 59.4699 88.1687 59.4552H91.3935C95.523 59.4552 96.9922 57.0795 96.9922 54.4833C96.9922 51.3379 94.7967 49.5987 91.3935 49.5987H89.53V46.7362L94.5352 46.7321ZM91.4184 52.3905C93.0785 52.3905 93.9417 53.0728 93.9417 54.4999C93.9417 55.5567 93.4811 56.6593 91.4184 56.6593H89.5549V52.3905H91.4184ZM103.952 54.1712C107.355 54.1712 109.551 52.3447 109.551 49.087C109.551 46.4034 108.082 43.9403 103.952 43.9403H100.727C100.291 43.9256 99.8668 44.0837 99.546 44.3804C99.2252 44.677 99.0339 45.0884 99.0134 45.5255V58.1987C99.0339 58.5937 99.2048 58.9657 99.4909 59.238C99.7771 59.5104 100.157 59.6622 100.551 59.6622C100.946 59.6622 101.325 59.5104 101.611 59.238C101.897 58.9657 102.068 58.5937 102.089 58.1987V54.1712H103.952ZM102.097 46.7321H103.961C106.036 46.7321 106.488 47.922 106.488 49.0662C106.488 50.6514 105.608 51.3753 103.961 51.3753H102.097V46.7321ZM113.378 56.393H118.034L118.802 58.6189C118.927 58.9159 119.134 59.1708 119.399 59.3536C119.663 59.5365 119.975 59.6396 120.296 59.6508C121.193 59.6508 121.873 59.0808 121.873 58.2445C121.873 58.0802 121.852 57.9167 121.811 57.7577L117.528 45.2384C117.221 44.3564 116.781 43.7406 115.727 43.7406C114.672 43.7406 114.237 44.3813 113.95 45.2384L109.671 57.7577C109.627 57.9161 109.605 58.0799 109.605 58.2445C109.613 58.4421 109.661 58.6359 109.746 58.8145C109.831 58.9932 109.95 59.1528 110.098 59.2841C110.245 59.4153 110.418 59.5154 110.605 59.5784C110.792 59.6414 110.989 59.666 111.186 59.6508C111.5 59.634 111.803 59.5282 112.06 59.3455C112.316 59.1628 112.516 58.9108 112.635 58.6189L113.357 56.393H113.378ZM117.262 53.8966H114.191L115.353 50.1521C115.543 49.4456 115.674 48.7248 115.747 47.9969C115.829 48.7251 115.968 49.4457 116.162 50.1521L117.279 53.8966H117.262Z" fill="#1D1D1B"/>
</svg>
