<svg width="170" height="62" viewBox="0 0 170 62" fill="none" xmlns="http://www.w3.org/2000/svg">
<g clip-path="url(#clip0_224_18565)">
<path fill-rule="evenodd" clip-rule="evenodd" d="M61.2257 4.31614C61.2737 4.31726 61.3214 4.30871 61.366 4.291C61.4105 4.27329 61.451 4.24679 61.485 4.2131C61.5189 4.17942 61.5456 4.13925 61.5635 4.09502C61.5813 4.0508 61.5899 4.00344 61.5888 3.95582C61.5888 3.90869 61.5794 3.86203 61.5611 3.81854C61.5428 3.77506 61.516 3.7356 61.4822 3.70247C61.4484 3.66934 61.4084 3.64318 61.3643 3.62552C61.3203 3.60786 61.2732 3.59905 61.2257 3.59959H58.519C58.4096 3.59959 58.3047 3.64273 58.2273 3.71952C58.1499 3.79631 58.1064 3.90045 58.1064 4.00905V9.65546C58.1075 9.77241 58.1548 9.88427 58.2382 9.96697C58.3215 10.0497 58.4342 10.0966 58.5521 10.0977H59.9136C61.4526 10.0977 62.0014 9.14773 62.0014 8.12C62.0014 6.86706 61.1762 6.17508 59.9136 6.17508H58.8491V4.31614H61.2257ZM58.845 9.38112V6.89572H59.9095C60.7925 6.89572 61.2546 7.30518 61.2546 8.12409C61.2546 8.73828 61.0029 9.37703 59.9095 9.37703L58.845 9.38112ZM67.3198 9.81105V3.95582C67.3177 3.8606 67.278 3.76999 67.2094 3.70341C67.1408 3.63683 67.0486 3.59957 66.9526 3.59959H64.2625C64.168 3.60067 64.0777 3.63868 64.0113 3.70536C63.9449 3.77205 63.9076 3.86205 63.9076 3.95582L63.5734 8.59497C63.528 9.1764 63.3795 9.45483 63.0453 9.45483C62.905 9.45483 62.905 9.42616 62.7853 9.42616C62.7367 9.42452 62.6882 9.43345 62.6434 9.45233C62.5986 9.47121 62.5584 9.49959 62.5258 9.53547C62.4932 9.57135 62.4689 9.61387 62.4545 9.66006C62.4402 9.70625 62.4362 9.75499 62.4429 9.80286C62.4429 10.1632 62.7853 10.1714 63.1484 10.1714C63.9076 10.1714 64.2418 9.52853 64.3078 8.53355L64.5925 4.30795H66.5813V9.81105C66.5807 9.85923 66.59 9.90702 66.6085 9.95154C66.6271 9.99606 66.6545 10.0364 66.6893 10.0701C66.724 10.1037 66.7652 10.1301 66.8105 10.1475C66.8557 10.1649 66.9041 10.173 66.9526 10.1714C67.049 10.1703 67.1411 10.1322 67.2097 10.0649C67.2782 9.99769 67.3177 9.90666 67.3198 9.81105ZM69.3828 8.63591H71.7305L72.1431 9.91342C72.1698 9.98952 72.2184 10.0561 72.283 10.1049C72.3476 10.1537 72.4252 10.1825 72.5062 10.1878C72.5564 10.1918 72.6069 10.1853 72.6545 10.1687C72.702 10.1521 72.7455 10.1257 72.782 10.0914C72.8186 10.057 72.8475 10.0154 72.8668 9.96919C72.8861 9.92301 72.8954 9.87331 72.8941 9.82334C72.8988 9.77705 72.8988 9.73041 72.8941 9.68412L71.0415 4.00495C70.9507 3.71833 70.8269 3.5136 70.5505 3.5136C70.2741 3.5136 70.1379 3.72652 70.0678 4.00495L68.2606 9.68412C68.2468 9.72925 68.2398 9.77617 68.2399 9.82334C68.2395 9.87523 68.2503 9.92661 68.2715 9.97404C68.2928 10.0215 68.3239 10.0638 68.363 10.0984C68.4021 10.1329 68.4481 10.1587 68.498 10.1741C68.548 10.1895 68.6006 10.1942 68.6525 10.1878C68.7314 10.1802 68.8063 10.1504 68.8685 10.1017C68.9307 10.0531 68.9775 9.98772 69.0032 9.91342L69.3911 8.63591H69.3828ZM70.5546 4.79521L71.5077 7.89889H69.5933L70.5546 4.79521ZM74.5238 4.31614H76.723C76.7708 4.31669 76.8183 4.30774 76.8626 4.28983C76.9069 4.27192 76.9472 4.2454 76.981 4.21183C77.0148 4.17826 77.0415 4.13832 77.0596 4.09435C77.0776 4.05039 77.0867 4.00329 77.0861 3.95582C77.085 3.86097 77.0463 3.77037 76.9783 3.70367C76.9103 3.63698 76.8186 3.59958 76.723 3.59959H74.202C74.0926 3.59959 73.9876 3.64273 73.9103 3.71952C73.8329 3.79631 73.7894 3.90045 73.7894 4.00905V9.81105C73.7894 9.90879 73.8285 10.0025 73.8982 10.0716C73.9678 10.1407 74.0623 10.1796 74.1608 10.1796C74.2592 10.1796 74.3537 10.1407 74.4233 10.0716C74.493 10.0025 74.5321 9.90879 74.5321 9.81105V4.31614H74.5238ZM79.5906 10.1878C81.0099 10.1878 81.7237 9.13954 81.7237 7.83338V5.8516C81.7237 4.57 81.1213 3.50132 79.5906 3.50132C78.0598 3.50132 77.4533 4.58229 77.4533 5.8516V7.82109C77.4533 9.12726 78.1671 10.1755 79.5865 10.1755L79.5906 10.1878ZM79.5906 4.23425C80.6097 4.23425 80.9811 4.88529 80.9811 5.87208V7.84157C80.9811 8.80788 80.5437 9.47939 79.5906 9.47939C78.6375 9.47939 78.196 8.80788 78.196 7.84157V5.8516C78.196 4.873 78.5673 4.21378 79.5906 4.21378V4.23425ZM83.8239 9.82334C83.8239 9.92107 83.863 10.0148 83.9326 10.0839C84.0023 10.153 84.0967 10.1918 84.1952 10.1918C84.2937 10.1918 84.3882 10.153 84.4578 10.0839C84.5274 10.0148 84.5666 9.92107 84.5666 9.82334V4.32433H85.8209C85.9184 4.32549 86.0125 4.28896 86.0833 4.22248C86.1542 4.15599 86.1962 4.06477 86.2005 3.9681C86.1962 3.87106 86.1543 3.7794 86.0836 3.71226C86.0129 3.64512 85.9188 3.60769 85.8209 3.60778H82.5613C82.4672 3.61653 82.379 3.6571 82.3114 3.72269C82.2438 3.78828 82.2009 3.87491 82.19 3.9681C82.1905 4.01577 82.2006 4.06286 82.2196 4.10665C82.2386 4.15043 82.2662 4.19004 82.3007 4.22317C82.3352 4.2563 82.3761 4.2823 82.4208 4.29967C82.4655 4.31703 82.5133 4.32542 82.5613 4.32433H83.8239V9.82334ZM87.8591 6.36752V4.32024H89.0969C89.9221 4.32024 90.2109 4.78292 90.2109 5.27018C90.2039 5.42616 90.1648 5.57908 90.0963 5.71963C90.0277 5.86017 89.9311 5.98539 89.8122 6.08767C89.6933 6.18995 89.5546 6.26714 89.4047 6.31455C89.2548 6.36196 89.0967 6.37859 88.9401 6.36343L87.8591 6.36752ZM88.9525 7.07998C89.7777 7.07998 90.3719 7.48943 90.3719 8.25921C90.3719 8.91844 89.918 9.37293 88.9896 9.37293H87.8591V7.07998H88.9525ZM89.0928 10.0895C90.3306 10.0895 91.1145 9.27057 91.1145 8.24693C91.1145 7.22329 90.3636 6.94076 89.7447 6.74831C90.4296 6.4617 90.9413 6.06452 90.9413 5.27427C90.9433 5.04283 90.8966 4.81353 90.804 4.6011C90.7114 4.38868 90.575 4.19785 90.4036 4.04088C90.2322 3.88391 90.0296 3.76428 89.8088 3.68969C89.5881 3.6151 89.354 3.5872 89.1217 3.60778H87.5538C87.4356 3.60778 87.3223 3.65437 87.2387 3.7373C87.1551 3.82023 87.1082 3.93271 87.1082 4.04999V9.65546C87.1082 9.77274 87.1551 9.88522 87.2387 9.96815C87.3223 10.0511 87.4356 10.0977 87.5538 10.0977L89.0928 10.0895ZM94.0193 10.1796C95.4386 10.1796 96.1524 9.13135 96.1524 7.82519V5.8516C96.1524 4.57 95.55 3.50132 94.0193 3.50132C92.4885 3.50132 91.8861 4.58229 91.8861 5.8516V7.82109C91.8861 9.12726 92.5999 10.1755 94.0193 10.1755V10.1796ZM94.0193 4.22606C95.0384 4.22606 95.4097 4.8771 95.4097 5.86389V7.83338C95.4097 8.79969 94.9765 9.4712 94.0193 9.4712C93.062 9.4712 92.6288 8.79969 92.6288 7.83338V5.8516C92.6288 4.873 93.0001 4.21378 94.0193 4.21378V4.22606ZM99.0654 7.69416C100.336 7.69416 101.153 6.96942 101.153 5.64688C101.153 4.57 100.604 3.59959 99.0654 3.59959H97.7038C97.5859 3.60066 97.4732 3.64759 97.3899 3.73029C97.3066 3.81299 97.2593 3.92485 97.2582 4.0418V9.80286C97.2527 9.85424 97.2582 9.90619 97.2742 9.95534C97.2903 10.0045 97.3166 10.0497 97.3514 10.0881C97.3862 10.1265 97.4288 10.1573 97.4764 10.1783C97.5239 10.1993 97.5754 10.2102 97.6275 10.2102C97.6795 10.2102 97.731 10.1993 97.7786 10.1783C97.8261 10.1573 97.8687 10.1265 97.9035 10.0881C97.9383 10.0497 97.9646 10.0045 97.9807 9.95534C97.9967 9.90619 98.0022 9.85424 97.9967 9.80286V7.70235L99.0654 7.69416ZM97.9967 4.31614H99.0654C100.159 4.31614 100.41 4.98765 100.41 5.65097C100.41 6.55587 99.9483 6.97761 99.0654 6.97761H97.9967V4.32433V4.31614ZM102.581 10.1796C102.657 10.179 102.731 10.1596 102.797 10.1231C102.864 10.0866 102.92 10.0342 102.96 9.97074L105.539 5.11049V9.81105C105.541 9.91031 105.582 10.0049 105.653 10.0751C105.723 10.1453 105.819 10.1857 105.919 10.1878C105.967 10.1867 106.016 10.1761 106.06 10.1566C106.105 10.1371 106.145 10.109 106.179 10.0741C106.213 10.0391 106.239 9.99784 106.257 9.95271C106.274 9.90759 106.283 9.85945 106.282 9.81105V3.91897C106.282 3.81037 106.238 3.70623 106.161 3.62944C106.084 3.55265 105.979 3.50951 105.869 3.50951C105.791 3.50959 105.714 3.53003 105.646 3.56882C105.578 3.60761 105.521 3.66339 105.481 3.73062L102.903 8.58268V3.8944C102.896 3.79627 102.854 3.70378 102.784 3.63386C102.715 3.56394 102.622 3.52125 102.523 3.5136C102.424 3.51682 102.331 3.55861 102.263 3.62991C102.195 3.70122 102.158 3.79626 102.16 3.8944V9.78239C102.16 9.89099 102.203 9.99513 102.281 10.0719C102.358 10.1487 102.463 10.1918 102.572 10.1918L102.581 10.1796ZM108.823 9.81515C108.823 9.91288 108.863 10.0066 108.932 10.0757C109.002 10.1448 109.096 10.1837 109.195 10.1837C109.293 10.1837 109.388 10.1448 109.457 10.0757C109.527 10.0066 109.566 9.91288 109.566 9.81515V4.32433H110.829C110.926 4.32549 111.02 4.28896 111.091 4.22248C111.162 4.15599 111.204 4.06477 111.208 3.9681C111.204 3.87106 111.162 3.7794 111.091 3.71226C111.021 3.64512 110.927 3.60769 110.829 3.60778H107.561C107.467 3.61653 107.378 3.6571 107.311 3.72269C107.243 3.78828 107.2 3.87491 107.189 3.9681C107.19 4.01577 107.2 4.06286 107.219 4.10665C107.238 4.15043 107.266 4.19004 107.3 4.22317C107.335 4.2563 107.376 4.2823 107.42 4.29967C107.465 4.31703 107.513 4.32542 107.561 4.32433H108.823V9.82334V9.81515ZM115.528 9.72097C115.522 9.62793 115.48 9.54084 115.411 9.47762C115.342 9.4144 115.251 9.37986 115.157 9.38112H112.854V7.19872H114.885C114.932 7.19927 114.98 7.19032 115.024 7.17241C115.068 7.15449 115.109 7.12797 115.142 7.09441C115.176 7.06084 115.203 7.0209 115.221 6.97693C115.239 6.93297 115.248 6.88587 115.248 6.8384C115.245 6.74349 115.207 6.65305 115.139 6.58592C115.071 6.51879 114.98 6.48016 114.885 6.47807H112.854V4.32433H115.062C115.11 4.32653 115.157 4.31919 115.202 4.30274C115.247 4.28629 115.287 4.26107 115.322 4.22858C115.357 4.1961 115.384 4.15702 115.404 4.11367C115.423 4.07032 115.433 4.0236 115.433 3.97629C115.433 3.9279 115.424 3.87998 115.405 3.83527C115.386 3.79056 115.359 3.74993 115.325 3.71571C115.29 3.68149 115.249 3.65435 115.204 3.63583C115.159 3.61731 115.111 3.60778 115.062 3.60778H112.549C112.434 3.61088 112.325 3.6576 112.243 3.73834C112.162 3.81907 112.115 3.92767 112.112 4.0418V9.66365C112.112 9.99531 112.392 10.0977 112.698 10.0977H115.173C115.223 10.0971 115.271 10.087 115.317 10.0677C115.362 10.0485 115.403 10.0206 115.438 9.98565C115.472 9.95067 115.499 9.90929 115.518 9.86388C115.536 9.81846 115.545 9.76991 115.545 9.72097H115.528ZM120.805 9.81105V3.95582C120.802 3.86023 120.762 3.76962 120.692 3.70315C120.623 3.63667 120.53 3.59954 120.434 3.59959H117.744C117.697 3.60013 117.651 3.60976 117.608 3.62796C117.566 3.64615 117.527 3.67254 117.494 3.70562C117.462 3.7387 117.436 3.77782 117.419 3.82075C117.401 3.86368 117.393 3.90957 117.393 3.95582L117.059 8.59497C117.009 9.1764 116.861 9.45483 116.527 9.45483C116.391 9.45483 116.391 9.42616 116.267 9.42616C116.218 9.42522 116.17 9.43462 116.126 9.45373C116.081 9.47285 116.041 9.50122 116.009 9.53695C115.976 9.57267 115.952 9.6149 115.937 9.66078C115.923 9.70666 115.918 9.75511 115.924 9.80286C115.924 10.1632 116.267 10.1714 116.63 10.1714C117.393 10.1714 117.723 9.52853 117.789 8.53355L118.078 4.30795H120.067V9.81105C120.066 9.85923 120.075 9.90702 120.094 9.95154C120.113 9.99606 120.14 10.0364 120.175 10.0701C120.209 10.1037 120.251 10.1301 120.296 10.1475C120.341 10.1649 120.39 10.173 120.438 10.1714C120.535 10.1704 120.628 10.1323 120.697 10.0652C120.766 9.99807 120.806 9.90703 120.809 9.81105H120.805ZM122.91 5.99082V3.90259C122.91 3.80485 122.87 3.71112 122.801 3.64201C122.731 3.5729 122.637 3.53408 122.538 3.53408C122.44 3.53408 122.345 3.5729 122.276 3.64201C122.206 3.71112 122.167 3.80485 122.167 3.90259V9.65546C122.169 9.77209 122.217 9.88335 122.3 9.96583C122.383 10.0483 122.495 10.0956 122.613 10.0977H123.978C125.517 10.0977 126.066 9.10269 126.066 8.02582C126.066 6.71965 125.241 5.97854 123.978 5.97854L122.91 5.99082ZM122.91 6.71146H123.978C124.857 6.71146 125.323 7.12092 125.323 8.03401C125.323 8.69733 125.072 9.38112 123.978 9.38112H122.914V6.71146H122.91ZM131.162 9.81105V3.88212C131.162 3.78438 131.123 3.69065 131.053 3.62154C130.983 3.55243 130.889 3.5136 130.79 3.5136C130.692 3.5136 130.597 3.55243 130.528 3.62154C130.458 3.69065 130.419 3.78438 130.419 3.88212V6.49036H127.886V3.88212C127.886 3.78438 127.846 3.69065 127.777 3.62154C127.707 3.55243 127.613 3.5136 127.514 3.5136C127.416 3.5136 127.321 3.55243 127.252 3.62154C127.182 3.69065 127.143 3.78438 127.143 3.88212V9.81105C127.143 9.90879 127.182 10.0025 127.252 10.0716C127.321 10.1407 127.416 10.1796 127.514 10.1796C127.613 10.1796 127.707 10.1407 127.777 10.0716C127.846 10.0025 127.886 9.90879 127.886 9.81105V7.20691H130.419V9.81105C130.42 9.90924 130.459 10.0033 130.528 10.0734C130.598 10.1436 130.691 10.1846 130.79 10.1878C130.89 10.1856 130.984 10.145 131.053 10.0746C131.123 10.0042 131.162 9.90956 131.162 9.81105ZM133.266 5.99082V3.90259C133.266 3.80485 133.227 3.71112 133.157 3.64201C133.087 3.5729 132.993 3.53408 132.895 3.53408C132.796 3.53408 132.702 3.5729 132.632 3.64201C132.562 3.71112 132.523 3.80485 132.523 3.90259V9.65546C132.525 9.77209 132.573 9.88335 132.656 9.96583C132.739 10.0483 132.851 10.0956 132.969 10.0977H134.335C135.874 10.0977 136.418 9.10269 136.418 8.02582C136.418 6.71965 135.593 5.97854 134.335 5.97854L133.266 5.99082ZM133.266 6.71146H134.335C135.213 6.71146 135.675 7.12092 135.675 8.03401C135.675 8.69733 135.428 9.38112 134.335 9.38112H133.27V6.71146H133.266ZM137.144 9.82334C137.144 9.92107 137.183 10.0148 137.253 10.0839C137.323 10.153 137.417 10.1918 137.516 10.1918C137.614 10.1918 137.709 10.153 137.778 10.0839C137.848 10.0148 137.887 9.92107 137.887 9.82334V3.88212C137.887 3.78438 137.848 3.69065 137.778 3.62154C137.709 3.55243 137.614 3.5136 137.516 3.5136C137.417 3.5136 137.323 3.55243 137.253 3.62154C137.183 3.69065 137.144 3.78438 137.144 3.88212V9.82334ZM139.657 10.1878C139.548 10.1878 139.443 10.1446 139.365 10.0678C139.288 9.99104 139.244 9.88689 139.244 9.7783V3.8944C139.242 3.79626 139.279 3.70122 139.347 3.62991C139.415 3.55861 139.509 3.51682 139.608 3.5136C139.706 3.52125 139.799 3.56394 139.869 3.63386C139.939 3.70378 139.981 3.79627 139.987 3.8944V8.58678L142.566 3.73471C142.606 3.66748 142.662 3.6117 142.73 3.57292C142.798 3.53413 142.875 3.51368 142.954 3.5136C143.063 3.5136 143.168 3.55674 143.246 3.63353C143.323 3.71032 143.366 3.81447 143.366 3.92306V9.81105C143.367 9.85945 143.359 9.90759 143.341 9.95271C143.324 9.99784 143.297 10.0391 143.263 10.0741C143.23 10.109 143.189 10.1371 143.145 10.1566C143.1 10.1761 143.052 10.1867 143.003 10.1878C142.903 10.1857 142.808 10.1453 142.737 10.0751C142.666 10.0049 142.626 9.91031 142.624 9.81105V5.11868L140.045 9.97893C140.004 10.0424 139.948 10.0948 139.882 10.1313C139.816 10.1678 139.741 10.1872 139.665 10.1878H139.657ZM141.307 2.40807C141.183 2.40453 141.061 2.36913 140.954 2.3053C140.847 2.24147 140.758 2.15135 140.697 2.04365C140.666 1.99766 140.625 1.96005 140.576 1.93428C140.527 1.90852 140.472 1.89544 140.416 1.89625C140.374 1.89298 140.332 1.90055 140.293 1.91824C140.255 1.93593 140.221 1.96314 140.196 1.99725C140.172 2.03137 140.156 2.07126 140.151 2.11308C140.146 2.15491 140.152 2.19727 140.169 2.2361C140.255 2.46045 140.41 2.65281 140.61 2.78692C140.811 2.92102 141.049 2.99034 141.291 2.98541C141.533 2.99369 141.772 2.92619 141.973 2.79246C142.175 2.65872 142.329 2.46552 142.413 2.24019C142.432 2.20184 142.44 2.15916 142.437 2.11665C142.433 2.07413 142.418 2.03334 142.393 1.99857C142.368 1.9638 142.334 1.93632 142.295 1.91904C142.256 1.90176 142.213 1.8953 142.17 1.90034C142.115 1.89984 142.061 1.91309 142.013 1.93886C141.964 1.96463 141.923 2.00208 141.893 2.04775C141.833 2.15583 141.746 2.24704 141.641 2.3129C141.536 2.37875 141.415 2.41713 141.291 2.42445L141.307 2.40807ZM149.918 9.82334C149.918 9.92107 149.958 10.0148 150.027 10.0839C150.097 10.153 150.191 10.1918 150.29 10.1918C150.388 10.1918 150.483 10.153 150.552 10.0839C150.622 10.0148 150.661 9.92107 150.661 9.82334V8.62363H151.264C152.534 8.62363 153.351 7.89889 153.351 6.57634C153.351 5.49947 152.803 4.50859 151.264 4.50859H150.661V3.88212C150.662 3.83357 150.652 3.7854 150.634 3.74045C150.616 3.69549 150.588 3.65465 150.554 3.62032C150.519 3.58599 150.478 3.55886 150.433 3.54054C150.387 3.52221 150.339 3.51306 150.29 3.5136C150.194 3.52268 150.105 3.56442 150.037 3.63166C149.97 3.69891 149.928 3.78746 149.918 3.88212V4.52087H149.316C147.773 4.52087 147.228 5.51175 147.228 6.58863C147.228 7.89889 148.054 8.63591 149.316 8.63591H149.918V9.82334ZM151.264 5.23742C152.357 5.23742 152.609 5.91712 152.609 6.58044C152.609 7.48124 152.142 7.90708 151.264 7.90708H150.661V5.23742H151.264ZM149.316 7.89889C148.433 7.89889 147.971 7.48943 147.971 6.57225C147.971 5.90893 148.219 5.22923 149.316 5.22923H149.918V7.89889H149.316ZM156.33 10.1796C157.75 10.1796 158.463 9.13135 158.463 7.82519V5.8516C158.463 4.57 157.861 3.50132 156.33 3.50132C154.8 3.50132 154.185 4.58229 154.185 5.8516V7.82109C154.185 9.12726 154.899 10.1755 156.318 10.1755L156.33 10.1796ZM156.33 4.22606C157.349 4.22606 157.721 4.8771 157.721 5.86389V7.83338C157.721 8.79969 157.288 9.4712 156.33 9.4712C155.373 9.4712 154.94 8.79969 154.94 7.83338V5.8516C154.94 4.873 155.311 4.21378 156.33 4.21378V4.22606ZM163.584 9.80286V3.88212C163.584 3.78438 163.545 3.69065 163.475 3.62154C163.405 3.55243 163.311 3.5136 163.212 3.5136C163.114 3.5136 163.02 3.55243 162.95 3.62154C162.88 3.69065 162.841 3.78438 162.841 3.88212V6.49036H160.312V3.88212C160.312 3.78438 160.273 3.69065 160.203 3.62154C160.133 3.55243 160.039 3.5136 159.941 3.5136C159.842 3.5136 159.748 3.55243 159.678 3.62154C159.608 3.69065 159.569 3.78438 159.569 3.88212V9.81105C159.569 9.90879 159.608 10.0025 159.678 10.0716C159.748 10.1407 159.842 10.1796 159.941 10.1796C160.039 10.1796 160.133 10.1407 160.203 10.0716C160.273 10.0025 160.312 9.90879 160.312 9.81105V7.20691H162.841V9.81105C162.842 9.90924 162.881 10.0033 162.951 10.0734C163.02 10.1436 163.114 10.1846 163.212 10.1878C163.262 10.1872 163.311 10.1771 163.356 10.1578C163.401 10.1386 163.442 10.1107 163.477 10.0757C163.511 10.0408 163.538 9.99937 163.557 9.95396C163.575 9.90855 163.584 9.85999 163.584 9.81105V9.80286ZM168.849 3.59959H166.158C166.112 3.60013 166.066 3.60976 166.023 3.62796C165.98 3.64615 165.941 3.67254 165.909 3.70562C165.876 3.7387 165.851 3.77782 165.833 3.82075C165.816 3.86368 165.807 3.90957 165.808 3.95582L165.667 6.94076C165.614 8.09952 165.445 8.96348 165.139 9.3975H164.871C164.665 9.3975 164.508 9.59814 164.508 9.86428V11.0435C164.508 11.1391 164.546 11.2307 164.614 11.2983C164.683 11.3659 164.775 11.4038 164.871 11.4038C164.967 11.4038 165.06 11.3659 165.128 11.2983C165.196 11.2307 165.234 11.1391 165.234 11.0435V10.0977H169.092V11.0271C169.091 11.0744 169.099 11.1214 169.117 11.1654C169.135 11.2093 169.161 11.2493 169.194 11.2829C169.228 11.3166 169.268 11.3431 169.312 11.3611C169.356 11.3791 169.403 11.388 169.451 11.3875C169.5 11.3897 169.549 11.382 169.596 11.3649C169.642 11.3479 169.684 11.3217 169.72 11.2881C169.756 11.2545 169.784 11.2141 169.804 11.1692C169.824 11.1244 169.834 11.0761 169.835 11.0271V9.8479C169.843 9.79187 169.839 9.73478 169.824 9.68023C169.809 9.62569 169.782 9.57488 169.746 9.53102C169.71 9.48715 169.665 9.45118 169.614 9.42538C169.564 9.39959 169.508 9.38451 169.451 9.38112H169.22V3.95582C169.218 3.85988 169.178 3.76867 169.108 3.70197C169.039 3.63528 168.945 3.59849 168.849 3.59959ZM166.41 6.94076L166.505 4.31614H168.477V9.38112H165.866C166.237 8.61526 166.425 7.77436 166.414 6.92438L166.41 6.94076Z" fill="#F4F4F4"/>
<path fill-rule="evenodd" clip-rule="evenodd" d="M46.5389 40.2486C45.5486 42.7053 44.3067 45.072 42.4129 46.9473L27.518 61.7287L25.8676 63.3665L7.54807 45.162C2.85253 40.4786 0.148765 34.1845 -0.00480146 27.5797C-0.158368 20.9748 2.24999 14.5636 6.72286 9.6703L7.54807 8.85139C12.4136 4.05214 18.9951 1.3584 25.8552 1.3584C32.7153 1.3584 39.2968 4.05214 44.1623 8.85139C48.0614 12.7416 50.609 17.7644 51.4349 23.1898C52.2607 28.6152 51.3218 34.1606 48.7545 39.0202C50.0564 35.5038 50.3209 31.692 49.517 28.0318C48.7131 24.3716 46.8742 21.0147 44.2159 18.3549C36.327 10.4155 24.1635 10.5056 16.2498 18.3549C13.6896 20.926 12.2559 24.3962 12.2606 28.0108C12.2652 31.6255 13.7078 35.0921 16.2746 37.6567L24.9392 46.2553L32.593 38.6967C33.7046 37.6023 34.3337 36.1151 34.3424 34.5612C34.3407 33.037 33.75 31.5715 32.692 30.4666C32.6548 30.4298 32.6218 30.3929 32.5847 30.3602C31.4575 29.248 29.9327 28.6237 28.3432 28.6237C26.7537 28.6237 25.2288 29.248 24.1016 30.3602L18.874 35.5439L18.5233 35.1959C15.2224 31.9202 14.8098 26.2984 17.3804 22.6501C28.2441 6.87371 54.2545 21.1023 46.5389 40.2486Z" fill="#FFD600"/>
<path d="M61.1268 24.7478H65.6448C65.8347 24.76 66.0251 24.734 66.2047 24.6715C66.3843 24.6089 66.5493 24.5111 66.6899 24.3838C66.8305 24.2565 66.9438 24.1024 67.0229 23.9306C67.1021 23.7589 67.1456 23.5731 67.1508 23.3843C67.1336 23.0034 66.9659 22.6446 66.684 22.3855C66.4021 22.1265 66.0288 21.9881 65.6448 22.0003H59.7116C59.2953 21.9899 58.8911 22.1396 58.5835 22.4182C58.2759 22.6967 58.0887 23.0825 58.0612 23.4948V36.0529C58.0895 36.4354 58.2627 36.7932 58.5458 37.0543C58.829 37.3154 59.2012 37.4605 59.5878 37.4605C59.9743 37.4605 60.3465 37.3154 60.6297 37.0543C60.9129 36.7932 61.086 36.4354 61.1144 36.0529V24.7478H61.1268ZM78.3941 35.8604C78.3626 35.4847 78.1863 35.1355 77.902 34.8854C77.6177 34.6353 77.2472 34.5035 76.8675 34.5174H72.1061V30.9879H76.2321C76.4232 30.9972 76.6142 30.9685 76.7939 30.9033C76.9736 30.8382 77.1384 30.7379 77.2784 30.6085C77.4184 30.4791 77.5308 30.3232 77.6091 30.15C77.6873 29.9767 77.7298 29.7897 77.734 29.5998C77.7086 29.2237 77.5377 28.8719 77.2571 28.6178C76.9764 28.3637 76.6077 28.227 76.228 28.2363H72.102V24.7478H76.6406C76.83 24.7605 77.0201 24.7357 77.1998 24.6749C77.3794 24.6141 77.5451 24.5184 77.6872 24.3934C77.8293 24.2684 77.9449 24.1167 78.0273 23.9469C78.1097 23.7772 78.1573 23.5929 78.1672 23.4047C78.1469 23.0195 77.9761 22.6574 77.6911 22.3951C77.406 22.1329 77.0292 21.9913 76.6406 22.0003H70.728C70.3026 21.9921 69.8905 22.1472 69.5776 22.4333C69.2647 22.7194 69.0752 23.1144 69.0487 23.5358V35.7417C69.0487 36.9127 70.0101 37.2772 71.0787 37.2772H76.8551C77.2446 37.2894 77.6232 37.1488 77.909 36.8859C78.1947 36.6231 78.3646 36.259 78.3818 35.8727L78.3941 35.8604ZM85.5528 37.4614C89.3281 37.4614 91.226 34.9269 91.226 31.7659V27.4788C91.226 24.4038 89.6334 21.8038 85.5528 21.8038C81.4722 21.8038 79.8795 24.4038 79.8795 27.4788V31.7659C79.8795 34.9269 81.7775 37.4614 85.5528 37.4614ZM85.5528 24.5553C87.4714 24.5553 88.1687 25.7223 88.1687 27.4788V31.7659C88.1687 33.4979 87.3435 34.7099 85.5528 34.7099C83.7621 34.7099 82.9328 33.4815 82.9328 31.7659V27.4788C82.9328 25.7223 83.6301 24.5553 85.5528 24.5553ZM96.6394 24.7478H101.153C101.343 24.7605 101.534 24.735 101.714 24.6727C101.894 24.6103 102.059 24.5125 102.2 24.3851C102.34 24.2577 102.454 24.1034 102.533 23.9314C102.612 23.7593 102.655 23.5732 102.659 23.3843C102.643 23.003 102.476 22.6436 102.194 22.3843C101.911 22.125 101.538 21.987 101.153 22.0003H95.2159C94.7996 21.9899 94.3954 22.1396 94.0878 22.4182C93.7802 22.6967 93.5931 23.0825 93.5655 23.4948V36.0529C93.5869 36.4363 93.7585 36.7962 94.0438 37.0556C94.3291 37.315 94.7054 37.4533 95.0921 37.4409C95.4782 37.4492 95.8526 37.3096 96.1376 37.0511C96.4227 36.7927 96.5964 36.4352 96.6229 36.0529V24.7478H96.6394ZM109.467 32.0566C112.846 32.0566 115.029 30.2591 115.029 27.053C115.029 24.412 113.568 21.988 109.467 21.988H106.257C105.823 21.9736 105.402 22.1291 105.083 22.4211C104.764 22.7131 104.573 23.1179 104.553 23.5481V36.0324C104.573 36.4211 104.743 36.7872 105.028 37.0552C105.312 37.3232 105.69 37.4727 106.082 37.4727C106.474 37.4727 106.851 37.3232 107.136 37.0552C107.42 36.7872 107.59 36.4211 107.61 36.0324V32.0566H109.467ZM107.61 24.7355H109.467C111.53 24.7355 111.976 25.9065 111.976 27.0325C111.976 28.5926 111.101 29.305 109.467 29.305H107.61V24.7478V24.7355ZM118.829 34.2554H123.479L124.242 36.4419C124.366 36.7349 124.572 36.9866 124.835 37.1673C125.098 37.348 125.408 37.4501 125.728 37.4614C126.623 37.4614 127.3 36.9005 127.3 36.0774C127.298 35.9156 127.276 35.7547 127.234 35.5984L122.955 23.2778C122.65 22.4098 122.217 21.8038 121.169 21.8038C120.121 21.8038 119.683 22.4302 119.398 23.2778L115.161 35.5984C115.117 35.7543 115.095 35.9155 115.095 36.0774C115.104 36.2717 115.152 36.4622 115.236 36.6377C115.321 36.8132 115.44 36.9702 115.586 37.0992C115.733 37.2283 115.904 37.3268 116.09 37.389C116.275 37.4512 116.472 37.4759 116.667 37.4614C116.98 37.4446 117.281 37.3398 117.536 37.1593C117.791 36.9787 117.989 36.7299 118.107 36.4419L118.829 34.2554ZM122.695 31.7986H119.654L120.81 28.1135C121.005 27.4188 121.143 26.7095 121.222 25.9925C121.301 26.7095 121.439 27.4188 121.635 28.1135L122.749 31.7986H122.695ZM134.149 36.0897C134.183 36.4685 134.359 36.8208 134.642 37.0774C134.925 37.334 135.294 37.4763 135.678 37.4763C136.061 37.4763 136.43 37.334 136.713 37.0774C136.996 36.8208 137.172 36.4685 137.206 36.0897V34.1039H137.97C141.353 34.1039 143.536 32.3063 143.536 29.0798C143.536 26.4388 142.071 23.9903 137.97 23.9903H137.206V23.2123C137.201 23.0207 137.157 22.832 137.077 22.6576C136.997 22.4831 136.882 22.3265 136.74 22.197C136.597 22.0675 136.43 21.9677 136.248 21.9037C136.066 21.8397 135.873 21.8126 135.68 21.8242C135.296 21.8256 134.927 21.9685 134.644 22.2251C134.361 22.4817 134.185 22.8336 134.149 23.2123V23.9903H133.386C129.284 23.9903 127.824 26.447 127.824 29.0798C127.824 32.3063 130.002 34.1039 133.386 34.1039H134.149V36.0979V36.0897ZM137.966 26.7336C140.029 26.7336 140.474 27.9252 140.474 29.0512C140.474 30.6071 139.604 31.3237 137.966 31.3237H137.202V26.7336H137.966ZM133.382 31.3114C131.731 31.3114 130.873 30.5948 130.873 29.0389C130.873 27.9129 131.331 26.7214 133.382 26.7214H134.145V31.3114H133.382ZM147.299 37.4614C147.586 37.4611 147.869 37.3921 148.124 37.2603C148.379 37.1284 148.598 36.9376 148.763 36.7039L153.809 27.962V36.0529C153.835 36.4402 154.01 36.8029 154.298 37.0653C154.586 37.3277 154.966 37.4696 155.357 37.4614C155.744 37.4724 156.121 37.3303 156.403 37.0662C156.686 36.8022 156.851 36.4377 156.863 36.0529V23.2778C156.861 23.0755 156.818 22.8755 156.737 22.6902C156.655 22.5049 156.536 22.3382 156.386 22.2001C156.237 22.0621 156.061 21.9558 155.869 21.8876C155.677 21.8195 155.474 21.7909 155.27 21.8038C154.974 21.8089 154.684 21.8863 154.426 22.0292C154.168 22.172 153.949 22.3759 153.789 22.6227C151.845 25.9557 150.731 27.9456 148.722 31.4137V23.2246C148.696 22.838 148.52 22.4763 148.232 22.2148C147.944 21.9532 147.565 21.8119 147.175 21.8201C146.787 21.8091 146.411 21.9512 146.128 22.2153C145.846 22.4794 145.681 22.8438 145.669 23.2287V35.9874C145.673 36.1921 145.719 36.3939 145.804 36.5805C145.889 36.767 146.012 36.9344 146.164 37.0724C146.317 37.2103 146.496 37.316 146.691 37.3829C146.886 37.4497 147.093 37.4765 147.299 37.4614ZM159.586 26.5903C159.586 28.7359 160.72 30.1403 162.598 30.7463L159.631 35.2094C159.466 35.4773 159.375 35.7838 159.367 36.0979C159.367 36.8554 160.37 37.4409 160.96 37.4409C161.215 37.4491 161.467 37.3915 161.693 37.2738C161.918 37.1561 162.109 36.9823 162.247 36.7694L165.866 31.0739H166.934V36.0324C166.959 36.422 167.133 36.7874 167.421 37.0533C167.708 37.3192 168.088 37.4653 168.481 37.4614C168.675 37.4669 168.869 37.4341 169.05 37.3651C169.231 37.2961 169.396 37.1921 169.537 37.0593C169.677 36.9264 169.79 36.7672 169.868 36.591C169.946 36.4148 169.988 36.2249 169.992 36.0324V23.5603C169.971 23.1396 169.789 22.7427 169.481 22.4522C169.174 22.1617 168.766 21.9998 168.341 22.0003H164.983C160.877 22.0003 159.569 24.3178 159.569 26.5903H159.586ZM162.643 26.5903C162.643 25.6813 163.056 24.7478 164.867 24.7478H166.963V28.3428H164.735C163.382 28.3428 162.643 27.7163 162.643 26.5903ZM62.868 52.4271L63.066 47.317H66.4287V57.1072H61.8901C62.5231 55.626 62.8568 54.0359 62.8721 52.4271H62.868ZM58.5893 57.1072C58.3832 57.1102 58.1799 57.1545 57.9915 57.2373C57.8031 57.3202 57.6335 57.44 57.4928 57.5895C57.3522 57.739 57.2434 57.9151 57.1731 58.1074C57.1027 58.2996 57.0722 58.5039 57.0833 58.7081V61.4802C57.1035 61.8625 57.2707 62.2225 57.5506 62.4861C57.8304 62.7496 58.2014 62.8965 58.5872 62.8965C58.973 62.8965 59.3441 62.7496 59.6239 62.4861C59.9037 62.2225 60.071 61.8625 60.0912 61.4802V59.8424H67.8604V61.4802C67.8652 61.6702 67.9081 61.8573 67.9868 62.0306C68.0655 62.2039 68.1784 62.3598 68.3187 62.4891C68.459 62.6185 68.624 62.7186 68.804 62.7837C68.9839 62.8489 69.1751 62.8776 69.3664 62.8682C69.5606 62.8804 69.7553 62.8539 69.9391 62.7904C70.1228 62.7268 70.2919 62.6275 70.4364 62.4982C70.581 62.3689 70.698 62.2122 70.7807 62.0374C70.8633 61.8626 70.91 61.6731 70.9178 61.4802V58.7081C70.9178 57.8647 70.3938 57.1072 69.4778 57.1072V46.1501C69.4575 45.72 69.2672 45.3151 68.9483 45.0232C68.6294 44.7312 68.2074 44.5756 67.7738 44.5901H61.8282C61.3977 44.5868 60.982 44.7463 60.6656 45.036C60.3491 45.3257 60.1556 45.724 60.1242 46.1501L59.7982 52.3861C59.6868 54.6177 59.2948 56.2637 58.5604 57.1072H58.5893ZM77.9444 60.0512C81.7197 60.0512 83.6177 57.5166 83.6177 54.3556V50.0727C83.6177 46.9977 82.025 44.3976 77.9444 44.3976C73.8638 44.3976 72.2711 46.9977 72.2711 50.0727V54.3597C72.2711 57.5207 74.1691 60.0553 77.9444 60.0553V60.0512ZM77.9444 47.1451C79.863 47.1451 80.5644 48.312 80.5644 50.0686V54.3556C80.5644 56.0876 79.7392 57.2996 77.9444 57.2996C76.1496 57.2996 75.3244 56.0713 75.3244 54.3556V50.0727C75.3244 48.3161 76.0217 47.1492 77.9444 47.1492V47.1451ZM93.9822 47.3375C94.1709 47.3486 94.3599 47.3219 94.5381 47.259C94.7162 47.1962 94.8797 47.0984 95.0191 46.9716C95.1584 46.8448 95.2706 46.6916 95.3491 46.5209C95.4275 46.3502 95.4706 46.1656 95.4758 45.9781C95.4597 45.5969 95.2924 45.2374 95.0102 44.9782C94.7281 44.7189 94.3541 44.5809 93.9698 44.5942H87.5993C87.183 44.5837 86.7788 44.7335 86.4712 45.012C86.1636 45.2906 85.9764 45.6763 85.9489 46.0887V58.3028C85.9703 58.7322 86.161 59.136 86.4798 59.4271C86.7986 59.7182 87.2199 59.8732 87.6529 59.8587H90.8588C94.9642 59.8587 96.4248 57.5207 96.4248 54.9657C96.4248 51.8702 94.2422 50.1587 90.8588 50.1587H89.0063V47.3416L93.9822 47.3375ZM90.8836 52.9061C92.534 52.9061 93.3922 53.5777 93.3922 54.9821C93.3922 56.0221 92.9342 57.1072 90.8836 57.1072H89.031V52.9061H90.8836ZM103.344 54.6586C106.727 54.6586 108.91 52.8611 108.91 49.6551C108.91 47.0141 107.45 44.5901 103.344 44.5901H100.138C99.7046 44.5756 99.2826 44.7312 98.9637 45.0232C98.6448 45.3151 98.4546 45.72 98.4342 46.1501V58.6222C98.4545 59.0109 98.6245 59.377 98.9089 59.645C99.1934 59.913 99.5706 60.0624 99.9629 60.0624C100.355 60.0624 100.732 59.913 101.017 59.645C101.301 59.377 101.471 59.0109 101.492 58.6222V54.6586H103.344ZM101.5 47.3375H103.352C105.415 47.3375 105.865 48.5086 105.865 49.6346C105.865 51.1946 104.99 51.9071 103.352 51.9071H101.5V47.3375ZM112.714 56.8451H117.344L118.107 59.0357C118.231 59.328 118.437 59.5788 118.7 59.7588C118.963 59.9387 119.273 60.0402 119.592 60.0512C120.484 60.0512 121.16 59.4902 121.16 58.6672C121.16 58.5056 121.139 58.3446 121.098 58.1881L116.84 45.8676C116.535 44.9995 116.098 44.3935 115.05 44.3935C114.002 44.3935 113.568 45.0241 113.284 45.8676L109.03 58.1881C108.986 58.344 108.963 58.5053 108.964 58.6672C108.972 58.8617 109.02 59.0524 109.104 59.2282C109.188 59.404 109.307 59.5612 109.454 59.6903C109.6 59.8195 109.772 59.918 109.958 59.98C110.144 60.042 110.34 60.0662 110.536 60.0512C110.848 60.0347 111.149 59.9305 111.404 59.7507C111.659 59.5709 111.857 59.323 111.976 59.0357L112.694 56.8451H112.714ZM116.576 54.3884H113.523L114.678 50.7033C114.867 50.008 114.998 49.2986 115.07 48.5823C115.152 49.2989 115.29 50.0081 115.483 50.7033L116.593 54.3884H116.576Z" fill="#F4F4F4"/>
</g>
<defs>
<clipPath id="clip0_224_18565">
<rect width="170" height="62" fill="white"/>
</clipPath>
</defs>
</svg>
