<svg width="45" height="46" viewBox="0 0 45 46" fill="none" xmlns="http://www.w3.org/2000/svg">
<g opacity="0.7" clip-path="url(#clip0_224_17564)">
<path d="M20.5272 25.2972C20.0337 24.9833 19.6444 24.5301 19.4085 23.995C19.1726 23.4599 19.1008 22.8668 19.202 22.2908C19.3032 21.7149 19.5729 21.1818 19.9771 20.7592C20.3813 20.3366 20.9017 20.0433 21.4726 19.9165C22.0435 19.7897 22.6392 19.835 23.1844 20.0468C23.7295 20.2585 24.1996 20.6272 24.5353 21.1061C24.8709 21.585 25.057 22.1527 25.0699 22.7374C25.0829 23.3221 24.9221 23.8974 24.6081 24.3907C24.1866 25.0514 23.5202 25.5179 22.7551 25.6878C21.9901 25.8578 21.1888 25.7173 20.5272 25.2972ZM23.1039 21.2466C22.7959 21.0504 22.4368 20.9499 22.0718 20.9579C21.7068 20.9659 21.3523 21.0819 21.0533 21.2914C20.7543 21.5008 20.5241 21.7942 20.3919 22.1345C20.2596 22.4748 20.2313 22.8467 20.3105 23.2031C20.3896 23.5595 20.5727 23.8844 20.8365 24.1367C21.1004 24.3891 21.4331 24.5575 21.7927 24.6208C22.1523 24.684 22.5225 24.6392 22.8566 24.4919C23.1907 24.3447 23.4736 24.1017 23.6696 23.7937C23.9307 23.3807 24.0176 22.8811 23.9113 22.4042C23.805 21.9273 23.5142 21.5118 23.1025 21.2487L23.1039 21.2466Z" fill="white"/>
<path d="M10.5871 29.2961C10.4836 29.2307 10.4046 29.1329 10.3624 29.0179C10.3202 28.903 10.3172 28.7773 10.3538 28.6604C10.3904 28.5436 10.4646 28.4421 10.5649 28.3718C10.6651 28.3015 10.7858 28.2663 10.9081 28.2716C12.4829 28.3394 14.0201 27.7789 15.1816 26.7134C16.343 25.6478 17.0336 24.1645 17.1013 22.5898C17.1348 21.81 17.0144 21.0313 16.747 20.2981C16.4796 19.5648 16.0703 18.8915 15.5427 18.3163C14.477 17.1549 12.9936 16.4642 11.4188 16.3964C11.3459 16.3933 11.2743 16.3758 11.2082 16.345C11.142 16.3142 11.0826 16.2706 11.0332 16.2169C10.9839 16.1631 10.9457 16.1001 10.9207 16.0316C10.8957 15.963 10.8844 15.8902 10.8876 15.8173C10.8907 15.7444 10.9082 15.6728 10.939 15.6067C10.9698 15.5406 11.0133 15.4811 11.0671 15.4318C11.1209 15.3825 11.1838 15.3442 11.2524 15.3193C11.3209 15.2943 11.3937 15.283 11.4666 15.2862C13.3359 15.3667 15.0967 16.1865 16.3616 17.5652C17.6265 18.9439 18.292 20.7685 18.2116 22.6377C18.1311 24.5069 17.3115 26.2676 15.9328 27.5323C14.5542 28.7971 12.7295 29.4624 10.8603 29.3818C10.7633 29.3775 10.6692 29.348 10.5871 29.2961Z" fill="white"/>
<path d="M21.4162 36.0084C21.2919 35.9294 21.2041 35.8041 21.1721 35.6603C21.1401 35.5165 21.1665 35.3659 21.2456 35.2416C22.0915 33.9118 22.3744 32.3005 22.0322 30.762C21.6899 29.2235 20.7506 27.884 19.4207 27.038C18.0908 26.192 16.4793 25.909 14.9408 26.2511C13.4023 26.5932 12.0628 27.5325 11.2169 28.8622C11.1344 28.9791 11.0102 29.0597 10.8698 29.0874C10.7295 29.1151 10.5839 29.0877 10.4632 29.011C10.3425 28.9342 10.256 28.8139 10.2216 28.6751C10.1872 28.5362 10.2075 28.3895 10.2784 28.2652C10.7693 27.4701 11.4132 26.7805 12.1728 26.2363C12.9325 25.6921 13.7926 25.3043 14.7034 25.0953C15.6142 24.8864 16.5575 24.8604 17.4784 25.019C18.3993 25.1776 19.2796 25.5175 20.0681 26.0191C20.8566 26.5206 21.5376 27.1738 22.0715 27.9407C22.6055 28.7076 22.9818 29.573 23.1785 30.4865C23.3753 31.4 23.3886 32.3434 23.2177 33.2621C23.0468 34.1808 22.6951 35.0563 22.183 35.8379C22.1039 35.9622 21.9787 36.05 21.8349 36.082C21.6911 36.114 21.5405 36.0875 21.4162 36.0084Z" fill="white"/>
<path d="M21.1176 35.9949C21.0358 35.9427 20.9691 35.8699 20.9241 35.7839C20.0589 34.125 19.8881 32.1904 20.4493 30.4056C21.0105 28.6209 22.2577 27.1322 23.9166 26.2671C25.5755 25.402 27.5102 25.2314 29.2951 25.7927C31.0799 26.354 32.5688 27.6013 33.434 29.2603C33.471 29.3252 33.4945 29.3969 33.5031 29.4711C33.5118 29.5453 33.5053 29.6205 33.4842 29.6921C33.4631 29.7638 33.4278 29.8305 33.3803 29.8881C33.3329 29.9458 33.2743 29.9933 33.208 30.0279C33.1418 30.0624 33.0692 30.0832 32.9947 30.089C32.9203 30.0948 32.8454 30.0856 32.7745 30.0618C32.7037 30.038 32.6384 30.0002 32.5826 29.9506C32.5267 29.901 32.4814 29.8406 32.4494 29.7731C31.7196 28.3749 30.4643 27.3239 28.9596 26.8512C27.455 26.3785 25.8242 26.5229 24.426 27.2525C23.0279 27.9822 21.9769 29.2373 21.5043 30.7419C21.0317 32.2465 21.1762 33.8773 21.906 35.2754C21.9627 35.3839 21.9819 35.5082 21.9607 35.6288C21.9395 35.7494 21.879 35.8596 21.7887 35.9423C21.6984 36.0249 21.5833 36.0755 21.4613 36.086C21.3393 36.0965 21.2172 36.0664 21.1141 36.0004L21.1176 35.9949Z" fill="white"/>
<path d="M29.2837 29.2366C28.7603 28.903 28.2828 28.5024 27.8634 28.0449C26.9184 27.0169 26.2998 25.7317 26.0858 24.352C25.8718 22.9723 26.0722 21.5601 26.6614 20.2944C27.2507 19.0287 28.2023 17.9663 29.3959 17.2419C30.5894 16.5175 31.9712 16.1636 33.3661 16.225C33.4408 16.2254 33.5146 16.2408 33.5832 16.2704C33.6518 16.3 33.7138 16.3431 33.7653 16.3971C33.8169 16.4512 33.857 16.5151 33.8833 16.585C33.9096 16.655 33.9215 16.7295 33.9184 16.8041C33.9152 16.8788 33.897 16.952 33.8648 17.0194C33.8327 17.0869 33.7873 17.1471 33.7313 17.1966C33.6754 17.2461 33.61 17.2838 33.5391 17.3074C33.4683 17.331 33.3934 17.3401 33.3189 17.3342C31.7441 17.2663 30.2069 17.8268 29.0454 18.8924C27.884 19.9579 27.1934 21.4412 27.1257 23.016C27.058 24.5907 27.6187 26.1279 28.6843 27.2894C29.75 28.4509 31.2334 29.1415 32.8082 29.2094C32.8829 29.2097 32.9568 29.2252 33.0254 29.2547C33.094 29.2843 33.156 29.3274 33.2075 29.3815C33.2591 29.4356 33.2992 29.4995 33.3255 29.5694C33.3518 29.6393 33.3637 29.7138 33.3605 29.7885C33.3574 29.8631 33.3392 29.9363 33.307 30.0038C33.2749 30.0712 33.2295 30.1315 33.1735 30.181C33.1176 30.2305 33.0522 30.2681 32.9813 30.2918C32.9104 30.3154 32.8355 30.3245 32.7611 30.3185C31.5268 30.271 30.3271 29.8977 29.2837 29.2366Z" fill="white"/>
<path d="M21.1191 35.9956C21.037 35.943 20.97 35.8701 20.9245 35.7839C20.3574 34.6947 20.0842 33.4764 20.132 32.2493C20.1799 31.0223 20.5471 29.829 21.1974 28.7873C20.7358 28.0848 20.1303 27.4882 19.421 27.037C18.7117 26.5857 17.9147 26.2902 17.0827 26.1699C16.4144 27.2002 15.489 28.0383 14.3977 28.6016C13.3065 29.1649 12.0872 29.4338 10.8602 29.3819C10.7629 29.3773 10.6685 29.3474 10.5862 29.2951C10.504 29.2428 10.4369 29.1699 10.3915 29.0837L10.2559 28.82C10.2108 28.7337 10.1892 28.6371 10.1932 28.5398C10.1973 28.4426 10.2269 28.3481 10.2791 28.2659C10.939 27.2296 11.8581 26.3836 12.9454 25.8115C14.0327 25.2395 15.2506 24.9613 16.4785 25.0044C16.8551 24.253 17.0684 23.4304 17.1045 22.5907C17.1407 21.751 16.9987 20.9131 16.688 20.1321C16.0918 20.1001 15.5019 19.993 14.9325 19.8132C14.0477 19.5374 13.2264 19.0888 12.5162 18.4936C11.8059 17.8983 11.2207 17.1681 10.7945 16.3452C10.7494 16.2589 10.7277 16.1623 10.7318 16.065C10.7359 15.9678 10.7655 15.8733 10.8177 15.7911L10.9771 15.5406C11.0294 15.4592 11.1021 15.3928 11.1879 15.3482C11.2738 15.3035 11.3699 15.2822 11.4666 15.2862C12.6933 15.3396 13.8848 15.712 14.9236 16.3667C15.9624 17.0213 16.8125 17.9356 17.3899 19.0192C18.2286 18.9699 19.0473 18.7431 19.7918 18.3538C20.5364 17.9645 21.1897 17.4215 21.7087 16.7609C21.152 15.6674 20.89 14.4478 20.9484 13.2223C21.0068 11.9968 21.3836 10.8076 22.0417 9.77221C22.0942 9.68999 22.1673 9.62298 22.2537 9.57788C22.3402 9.53279 22.437 9.51119 22.5344 9.51525L22.8294 9.52846C22.9269 9.53239 23.0216 9.56205 23.1039 9.61441C23.1862 9.66678 23.2532 9.73999 23.2981 9.82662C23.8656 10.9157 24.1392 12.1339 24.0919 13.361C24.0445 14.5881 23.6779 15.7815 23.0281 16.8235C23.4897 17.5261 24.0952 18.1227 24.8045 18.5739C25.5138 19.0251 26.3108 19.3206 27.1428 19.4409C27.8104 18.4105 28.7355 17.5722 29.8265 17.0089C30.9175 16.4456 32.1367 16.1769 33.3635 16.2294C33.461 16.2333 33.5557 16.2629 33.638 16.3153C33.7203 16.3677 33.7873 16.4409 33.8322 16.5275L33.9692 16.7891C34.0142 16.8756 34.0356 16.9724 34.0314 17.0699C34.0272 17.1673 33.9975 17.2619 33.9453 17.3442C33.2856 18.3799 32.3672 19.2257 31.2807 19.7978C30.1941 20.37 28.9771 20.6488 27.7498 20.6067C27.3736 21.3575 27.1601 22.1792 27.123 23.0182C27.086 23.8572 27.2264 24.6945 27.5349 25.4756C28.1327 25.5072 28.7242 25.6143 29.2951 25.7944C30.1799 26.0698 31.0014 26.5179 31.7119 27.1128C32.4224 27.7077 33.0079 28.4376 33.4344 29.2603C33.4799 29.3466 33.5017 29.4435 33.4975 29.5411C33.4933 29.6386 33.4632 29.7332 33.4105 29.8154L33.2511 30.0659C33.199 30.1482 33.1261 30.2152 33.0396 30.2602C32.9532 30.3051 32.8565 30.3264 32.7592 30.3218C31.8332 30.2845 30.9238 30.064 30.0836 29.673C29.2434 29.282 28.489 28.7282 27.8642 28.0438C27.4591 27.6031 27.1114 27.1128 26.8294 26.5847C25.9912 26.6363 25.1733 26.8641 24.4291 27.2532C23.6849 27.6424 23.0312 28.1841 22.5106 28.843C23.0689 29.9368 23.3322 31.1573 23.2745 32.3839C23.2168 33.6105 22.8401 34.8008 22.1816 35.8373C22.1293 35.9194 22.0563 35.9862 21.9699 36.0311C21.8835 36.0761 21.7869 36.0974 21.6896 36.0931L21.3932 36.0821C21.2959 36.0774 21.2015 36.0476 21.1191 35.9956ZM15.7372 26.1316C14.9496 26.1967 14.1829 26.4181 13.482 26.783C12.781 27.1479 12.1598 27.6489 11.6548 28.2567C12.971 28.1501 14.2134 27.6052 15.1833 26.7091C15.38 26.5286 15.5651 26.3357 15.7372 26.1316ZM21.8045 29.9911C21.469 30.7061 21.2791 31.4806 21.246 32.2697C21.2128 33.0588 21.337 33.8466 21.6114 34.5872C21.9468 33.8726 22.1364 33.0983 22.1693 32.3096C22.2022 31.5208 22.0778 30.7334 21.8032 29.9933L21.8045 29.9911ZM17.8544 20.0989C18.4055 21.7484 18.328 23.5433 17.6368 25.139C19.3419 25.4855 20.8587 26.4503 21.8952 27.8478C23.0489 26.5475 24.64 25.7163 26.3664 25.512C25.8199 23.8612 25.8982 22.0673 26.5865 20.4704C24.8814 20.124 23.3647 19.1592 22.3282 17.7616C21.1744 19.064 19.5815 19.8957 17.8534 20.0982L17.8544 20.0989ZM28.1758 26.6645C28.6276 27.3138 29.204 27.8669 29.8714 28.2915C30.5389 28.716 31.2841 29.0037 32.0637 29.1376C31.3137 28.0526 30.2212 27.2508 28.9612 26.8607C28.7045 26.7774 28.4426 26.7111 28.1772 26.6623L28.1758 26.6645ZM12.1608 16.4771C12.6113 17.1253 13.1863 17.6773 13.8523 18.101C14.5184 18.5246 15.2621 18.8115 16.0401 18.9448C15.5899 18.2964 15.0152 17.744 14.3494 17.32C13.6837 16.8959 12.9401 16.6087 12.1622 16.475L12.1608 16.4771ZM32.5671 17.3549C31.7801 17.4206 31.014 17.6421 30.3134 18.0065C29.6128 18.371 28.9916 18.8711 28.4861 19.4778C29.2737 19.4129 30.0405 19.1916 30.7415 18.8267C31.4425 18.4618 32.0636 17.9607 32.5685 17.3527L32.5671 17.3549ZM22.6173 11.0257C22.2815 11.7405 22.0914 12.5151 22.0583 13.3043C22.0251 14.0934 22.1495 14.8812 22.4242 15.6218C22.7603 14.9066 22.9505 14.1317 22.9839 13.3422C23.0173 12.5528 22.8931 11.7645 22.6186 11.0235L22.6173 11.0257Z" fill="white"/>
<path d="M24.2085 19.5112C24.0842 19.4321 23.9964 19.3069 23.9644 19.1631C23.9324 19.0193 23.9589 18.8687 24.038 18.7444L27.6052 13.1365C27.6443 13.075 27.6952 13.0217 27.755 12.9799C27.8147 12.938 27.8821 12.9083 27.9533 12.8924C28.0245 12.8766 28.0981 12.875 28.17 12.8876C28.2418 12.9002 28.3105 12.9268 28.372 12.966C28.4336 13.0052 28.4868 13.056 28.5287 13.1158C28.5706 13.1755 28.6003 13.2429 28.6161 13.3141C28.632 13.3853 28.6336 13.4589 28.621 13.5308C28.6084 13.6026 28.5818 13.6713 28.5426 13.7328L24.9754 19.3407C24.8961 19.4647 24.7709 19.5523 24.6272 19.5842C24.4835 19.6162 24.333 19.5899 24.2085 19.5112Z" fill="white"/>
<path d="M19.7512 19.3184C19.669 19.2666 19.6022 19.1937 19.5577 19.1073L16.4838 13.2082C16.4469 13.1433 16.4233 13.0716 16.4147 12.9974C16.4061 12.9232 16.4125 12.848 16.4336 12.7763C16.4547 12.7047 16.49 12.638 16.5375 12.5803C16.585 12.5226 16.6436 12.4751 16.7098 12.4406C16.7761 12.4061 16.8486 12.3853 16.9231 12.3795C16.9976 12.3736 17.0725 12.3829 17.1433 12.4067C17.2141 12.4304 17.2794 12.4683 17.3353 12.5179C17.3912 12.5675 17.4364 12.6278 17.4684 12.6953L20.5423 18.5945C20.599 18.703 20.6182 18.8273 20.597 18.9479C20.5758 19.0685 20.5154 19.1787 20.4251 19.2614C20.3348 19.344 20.2197 19.3946 20.0977 19.4051C19.9757 19.4156 19.8536 19.3855 19.7505 19.3194L19.7512 19.3184Z" fill="white"/>
<path d="M10.7176 22.7975C10.6141 22.7321 10.5351 22.6343 10.4929 22.5193C10.4507 22.4044 10.4477 22.2787 10.4843 22.1619C10.5209 22.045 10.5951 21.9436 10.6953 21.8732C10.7956 21.8029 10.9162 21.7677 11.0386 21.773L17.6845 22.0568C17.8317 22.0631 17.9704 22.1277 18.07 22.2363C18.1696 22.3449 18.222 22.4886 18.2157 22.6359C18.2093 22.7831 18.1448 22.9218 18.0362 23.0214C17.9276 23.121 17.7839 23.1734 17.6366 23.167L10.9907 22.8833C10.8937 22.8795 10.7994 22.8499 10.7176 22.7975Z" fill="white"/>
<path d="M15.8534 32.6458C15.7291 32.5668 15.6412 32.4415 15.6093 32.2977C15.5773 32.1539 15.6037 32.0033 15.6828 31.879L19.2507 26.2701C19.3298 26.1458 19.455 26.058 19.5988 26.026C19.7426 25.994 19.8932 26.0205 20.0175 26.0996C20.1419 26.1786 20.2297 26.3039 20.2617 26.4477C20.2936 26.5915 20.2672 26.7421 20.1881 26.8664L16.6202 32.4753C16.5409 32.5993 16.4157 32.6869 16.272 32.7189C16.1283 32.7508 15.9778 32.7246 15.8534 32.6458Z" fill="white"/>
<path d="M26.9492 33.123C26.8667 33.0706 26.7998 32.9971 26.7554 32.9102L23.6815 27.011C23.6365 26.9243 23.6151 26.8272 23.6195 26.7296C23.6238 26.632 23.6537 26.5373 23.7061 26.4548C23.7583 26.3728 23.8316 26.3063 23.9182 26.2621C23.9828 26.2282 24.0536 26.2073 24.1263 26.2008C24.199 26.1943 24.2723 26.2022 24.342 26.2241C24.4117 26.246 24.4763 26.2815 24.5322 26.3284C24.5881 26.3754 24.6342 26.433 24.6678 26.4978L27.7417 32.3969C27.787 32.4834 27.8086 32.5802 27.8044 32.6777C27.8002 32.7752 27.7703 32.8698 27.7178 32.9521C27.6653 33.0341 27.5923 33.1012 27.5061 33.1465C27.4195 33.1922 27.3223 33.214 27.2245 33.2099C27.1266 33.2057 27.0317 33.1757 26.9492 33.123Z" fill="white"/>
<path d="M26.271 23.4657C26.1886 23.4135 26.1214 23.3404 26.0763 23.2539C26.0312 23.1674 26.0097 23.0705 26.014 22.9731C26.0173 22.8759 26.0465 22.7814 26.0987 22.6993C26.1511 22.6169 26.2243 22.5496 26.3108 22.5043C26.3974 22.4591 26.4944 22.4373 26.592 22.4412L33.2379 22.725C33.3126 22.7254 33.3865 22.7408 33.4551 22.7704C33.5237 22.8 33.5856 22.8431 33.6372 22.8971C33.6888 22.9512 33.7289 23.0151 33.7552 23.085C33.7815 23.155 33.7934 23.2295 33.7902 23.3041C33.787 23.3787 33.7688 23.452 33.7367 23.5194C33.7046 23.5869 33.6592 23.6471 33.6032 23.6966C33.5472 23.7461 33.4819 23.7838 33.411 23.8074C33.3401 23.831 33.2652 23.8401 33.1907 23.8341L26.5448 23.5504C26.4477 23.5468 26.3532 23.5176 26.271 23.4657Z" fill="white"/>
<path d="M31.0339 8.05181C30.4403 8.17976 29.878 8.42433 29.3797 8.77133C28.8813 9.11833 28.4569 9.56085 28.131 10.0732C27.8051 10.5856 27.5842 11.1575 27.4811 11.756C27.378 12.3544 27.3948 12.9673 27.5305 13.5592C27.5627 13.7022 27.6502 13.8267 27.7738 13.9053C27.8975 13.984 28.0473 14.0105 28.1904 13.979C28.784 13.851 29.3463 13.6065 29.8446 13.2595C30.343 12.9125 30.7674 12.4699 31.0933 11.9576C31.4192 11.4452 31.6401 10.8732 31.7432 10.2748C31.8463 9.6764 31.8295 9.06346 31.6938 8.47156C31.661 8.32892 31.5734 8.2049 31.4499 8.12634C31.3264 8.04779 31.177 8.02101 31.0339 8.05181Z" fill="white"/>
<path d="M17.2053 9.60343C16.9252 9.06483 16.5402 8.58769 16.0729 8.20007C15.6057 7.81245 15.0656 7.52219 14.4846 7.34636C14.3452 7.30518 14.1953 7.32023 14.0669 7.38829C13.9386 7.45635 13.842 7.572 13.7979 7.71044C13.4913 8.67345 13.511 9.71068 13.8537 10.6615C14.1965 11.6122 14.8432 12.4234 15.6937 12.9694C16.0425 13.1908 16.4194 13.3642 16.8144 13.4851C16.954 13.5281 17.1049 13.5143 17.2345 13.4468C17.364 13.3793 17.4617 13.2635 17.5065 13.1245C17.6938 12.5472 17.7637 11.9383 17.7119 11.3335C17.6602 10.7288 17.488 10.1406 17.2053 9.60343Z" fill="white"/>
<path d="M11.4269 21.9547C11.0193 21.505 10.5264 21.1406 9.97693 20.8828C9.42744 20.625 8.83224 20.4788 8.22584 20.4527C7.61944 20.4266 7.01391 20.5212 6.44434 20.7308C5.87477 20.9405 5.35251 21.2612 4.90782 21.6743C4.80086 21.7737 4.7374 21.9113 4.73116 22.0573C4.72493 22.2032 4.77643 22.3457 4.87451 22.454C5.15171 22.7608 5.46894 23.0289 5.81767 23.2511C6.49499 23.681 7.27389 23.9242 8.07545 23.9562C8.68268 23.9843 9.28937 23.8903 9.85965 23.6799C10.4299 23.4695 10.9522 23.1469 11.3957 22.7312C11.5011 22.6314 11.5633 22.4943 11.5692 22.3493C11.575 22.2042 11.524 22.0626 11.4269 21.9547Z" fill="white"/>
<path d="M16.0341 31.6339C15.4404 31.7617 14.878 32.0062 14.3796 32.3532C13.8811 32.7001 13.4566 33.1426 13.1307 33.655C12.8048 34.1674 12.5839 34.7395 12.4809 35.338C12.3779 35.9365 12.3948 36.5495 12.5307 37.1414C12.5638 37.2838 12.6514 37.4076 12.7748 37.4861C12.8982 37.5646 13.0475 37.5916 13.1906 37.5611C13.7842 37.4332 14.3465 37.1886 14.8448 36.8416C15.3431 36.4946 15.7676 36.0521 16.0935 35.5397C16.4194 35.0274 16.6403 34.4554 16.7434 33.857C16.8465 33.2585 16.8297 32.6456 16.6939 32.0537C16.6615 31.9109 16.574 31.7866 16.4504 31.708C16.3268 31.6294 16.1772 31.6028 16.0341 31.6339Z" fill="white"/>
<path d="M30.1288 34.3853C29.8498 33.8459 29.4657 33.3678 28.999 32.9792C28.5323 32.5906 27.9925 32.2994 27.4114 32.1228C27.2716 32.0801 27.1205 32.094 26.9909 32.1617C26.8613 32.2294 26.7635 32.3454 26.7186 32.4846C26.4098 33.449 26.4284 34.4886 26.7715 35.4414C27.1146 36.3943 27.7629 37.2071 28.6158 37.7535C28.9645 37.9748 29.3415 38.1483 29.7364 38.2692C29.8758 38.3103 30.0257 38.2953 30.1541 38.2272C30.2825 38.1592 30.379 38.0435 30.4231 37.9051C30.6113 37.3284 30.6822 36.7199 30.6316 36.1155C30.5811 35.511 30.4101 34.9227 30.1288 34.3853Z" fill="white"/>
<path d="M32.7972 23.6554C33.0741 23.962 33.391 24.2298 33.7393 24.4519C34.5958 24.9928 35.607 25.2355 36.6156 25.1421C37.6242 25.0488 38.5737 24.6247 39.3163 23.9359C39.423 23.8373 39.4868 23.7008 39.4941 23.5557C39.5013 23.4105 39.4514 23.2684 39.355 23.1596C38.9474 22.7099 38.4545 22.3456 37.905 22.0877C37.3555 21.8299 36.7603 21.6837 36.1539 21.6576C35.5475 21.6315 34.942 21.7261 34.3724 21.9358C33.8029 22.1455 33.2806 22.4661 32.8359 22.8792C32.7292 22.9778 32.6654 23.1143 32.6582 23.2594C32.6509 23.4045 32.7009 23.5467 32.7972 23.6554Z" fill="white"/>
</g>
<defs>
<clipPath id="clip0_224_17564">
<rect width="30.2827" height="34.7928" fill="white" transform="translate(18.6738) rotate(32.461)"/>
</clipPath>
</defs>
</svg>
