<svg width="72" height="71" viewBox="0 0 72 71" fill="none" xmlns="http://www.w3.org/2000/svg">
<path d="M35.5853 41.9274C34.0265 41.9266 32.5212 41.3589 31.35 40.3301C30.1789 39.3013 29.4218 37.8818 29.2201 36.336C29.0183 34.7903 29.3856 33.224 30.2534 31.9291C31.1212 30.6342 32.4304 29.699 33.9368 29.2981C35.4432 28.8972 37.044 29.0578 38.4407 29.75C39.8374 30.4422 40.9347 31.6187 41.528 33.0602C42.1213 34.5017 42.1701 36.1098 41.6653 37.5846C41.1605 39.0595 40.1366 40.3004 38.7844 41.076C37.8106 41.6341 36.7077 41.9277 35.5853 41.9274ZM35.5663 31.4406C34.6731 31.4446 33.8061 31.743 33.0996 32.2895C32.3931 32.836 31.8864 33.6001 31.6581 34.4637C31.4297 35.3272 31.4924 36.2419 31.8364 37.0662C32.1804 37.8905 32.7866 38.5784 33.5611 39.0235C34.3355 39.4685 35.2351 39.6458 36.1205 39.5279C37.0059 39.4101 37.8278 39.0036 38.4588 38.3715C39.0899 37.7394 39.495 36.9168 39.6114 36.0312C39.7278 35.1456 39.549 34.2464 39.1027 33.4727C38.7461 32.851 38.2307 32.3353 37.6093 31.9783C36.988 31.6212 36.2829 31.4357 35.5663 31.4406Z" fill="#ADD9E2"/>
<path d="M35.7431 31.4165C35.4302 31.4158 35.1303 31.2912 34.9091 31.0699C34.6878 30.8487 34.5632 30.5488 34.5625 30.2359V19.0009C34.5625 18.6878 34.6869 18.3875 34.9083 18.1661C35.1297 17.9447 35.43 17.8203 35.7431 17.8203C36.0562 17.8203 36.3565 17.9447 36.578 18.1661C36.7994 18.3875 36.9237 18.6878 36.9237 19.0009V30.2359C36.9237 30.549 36.7994 30.8493 36.578 31.0707C36.3565 31.2921 36.0562 31.4165 35.7431 31.4165Z" fill="#ADD9E2"/>
<path d="M31.1156 28.6225C30.9082 28.6229 30.7044 28.5685 30.5248 28.4648C30.3452 28.3612 30.1962 28.2119 30.0927 28.0322L20.7947 11.9251C20.7101 11.7907 20.6535 11.6407 20.6283 11.4839C20.603 11.3271 20.6097 11.1669 20.6478 11.0128C20.686 10.8586 20.7548 10.7138 20.8502 10.5869C20.9457 10.4599 21.0657 10.3536 21.2032 10.2741C21.3407 10.1947 21.4927 10.1438 21.6503 10.1245C21.8079 10.1052 21.9678 10.1179 22.1204 10.1618C22.273 10.2057 22.4152 10.2799 22.5384 10.3801C22.6616 10.4802 22.7634 10.6041 22.8376 10.7445L32.1384 26.8516C32.2421 27.0311 32.2966 27.2347 32.2966 27.442C32.2966 27.6493 32.242 27.8529 32.1383 28.0324C32.0347 28.2119 31.8856 28.3609 31.706 28.4645C31.5265 28.5681 31.3229 28.6226 31.1156 28.6225Z" fill="#ADD9E2"/>
<path d="M31.3531 28.971C31.1195 28.9711 30.8911 28.9019 30.6969 28.7722C30.5026 28.6425 30.3512 28.4581 30.2618 28.2422C30.1724 28.0264 30.149 27.789 30.1946 27.5599C30.2402 27.3308 30.3527 27.1203 30.518 26.9552L34.7617 22.7115C34.8712 22.6015 35.0013 22.5141 35.1446 22.4545C35.2879 22.3949 35.4416 22.3643 35.5968 22.3643C35.7521 22.3643 35.9058 22.3949 36.0491 22.4545C36.1924 22.5141 36.3225 22.6015 36.432 22.7115L40.6512 26.9307C40.8727 27.1522 40.9971 27.4526 40.9971 27.7659C40.9971 28.0791 40.8727 28.3795 40.6512 28.601C40.4297 28.8225 40.1293 28.9469 39.8161 28.9469C39.5028 28.9469 39.2024 28.8225 38.9809 28.601L35.5968 25.2142L32.1883 28.6255C32.0788 28.7354 31.9486 28.8224 31.8052 28.8817C31.6619 28.941 31.5082 28.9714 31.3531 28.971Z" fill="#ADD9E2"/>
<path d="M26.7824 36.4847C26.5225 36.4845 26.2699 36.3985 26.0638 36.2402C25.8577 36.0818 25.7097 35.8598 25.6426 35.6087L24.0893 29.809C24.049 29.6593 24.0387 29.5031 24.0589 29.3494C24.0791 29.1957 24.1294 29.0475 24.207 28.9133C24.2846 28.7792 24.3879 28.6616 24.511 28.5674C24.6341 28.4732 24.7746 28.4042 24.9244 28.3645L30.6861 26.8193C30.8363 26.7795 30.9929 26.7696 31.1469 26.7903C31.301 26.811 31.4494 26.8618 31.5838 26.9399C31.7182 27.0179 31.8359 27.1217 31.9302 27.2452C32.0244 27.3688 32.0935 27.5097 32.1333 27.6599C32.1731 27.8101 32.183 27.9667 32.1623 28.1207C32.1416 28.2748 32.0908 28.4232 32.0127 28.5576C31.9347 28.692 31.8309 28.8097 31.7074 28.904C31.5838 28.9983 31.4429 29.0673 31.2927 29.1071L26.6682 30.3449L27.9141 35.0021C27.9553 35.1514 27.9668 35.3074 27.9477 35.4611C27.9286 35.6149 27.8793 35.7634 27.8027 35.898C27.7262 36.0327 27.6238 36.151 27.5015 36.246C27.3791 36.3411 27.2392 36.4111 27.0898 36.452C26.9892 36.476 26.8858 36.487 26.7824 36.4847Z" fill="#ADD9E2"/>
<path d="M31.0042 44.1964C30.9013 44.1963 30.7988 44.1825 30.6995 44.1556L24.8998 42.6023C24.598 42.5207 24.3408 42.323 24.1843 42.0523C24.0278 41.7817 23.9848 41.4601 24.0646 41.1578L25.6098 35.3934C25.6976 35.0987 25.8969 34.8498 26.1654 34.6998C26.4339 34.5497 26.7504 34.5104 27.0474 34.5902C27.3445 34.6699 27.5987 34.8625 27.7559 35.1268C27.9132 35.3911 27.9611 35.7064 27.8894 36.0055L26.6517 40.6301L31.3089 41.8787C31.585 41.9532 31.8246 42.1255 31.9833 42.3634C32.142 42.6013 32.209 42.8887 32.1718 43.1722C32.1345 43.4558 31.9956 43.7162 31.7809 43.905C31.5662 44.0939 31.2902 44.1984 31.0042 44.1992V44.1964Z" fill="#ADD9E2"/>
<path d="M35.5499 48.6417C35.3948 48.6421 35.2412 48.6117 35.0978 48.5524C34.9545 48.4931 34.8243 48.4061 34.7148 48.2962L30.4983 44.0688C30.2768 43.8473 30.1523 43.5469 30.1523 43.2337C30.1523 42.9204 30.2768 42.62 30.4983 42.3985C30.7198 42.177 31.0202 42.0526 31.3334 42.0526C31.6467 42.0526 31.9471 42.177 32.1686 42.3985L35.5499 45.7799L38.9612 42.3713C39.1827 42.1498 39.4831 42.0254 39.7964 42.0254C40.1096 42.0254 40.41 42.1498 40.6315 42.3713C40.853 42.5928 40.9774 42.8932 40.9774 43.2065C40.9774 43.5197 40.853 43.8201 40.6315 44.0416L36.3851 48.2853C36.2765 48.3971 36.1467 48.4862 36.0033 48.5474C35.8599 48.6086 35.7058 48.6406 35.5499 48.6417Z" fill="#ADD9E2"/>
<path d="M40.1561 44.2267C39.8701 44.226 39.5942 44.1215 39.3794 43.9326C39.1647 43.7437 39.0258 43.4834 38.9886 43.1998C38.9513 42.9163 39.0183 42.6288 39.177 42.3909C39.3357 42.153 39.5754 41.9808 39.8514 41.9063L44.476 40.6685L43.2274 36.0086C43.1593 35.7106 43.2094 35.3979 43.3672 35.1361C43.525 34.8743 43.7782 34.6839 44.0734 34.605C44.3687 34.5261 44.6831 34.5647 44.9505 34.7129C45.2179 34.861 45.4174 35.107 45.507 35.3993L47.0712 41.1963C47.1519 41.4989 47.1093 41.8212 46.9527 42.0925C46.7962 42.3637 46.5385 42.5619 46.2361 42.6435L40.4744 44.1859C40.3709 44.2152 40.2637 44.2289 40.1561 44.2267Z" fill="#ADD9E2"/>
<path d="M44.3992 36.4871C44.2954 36.4869 44.192 36.4731 44.0918 36.4462C43.942 36.4065 43.8015 36.3375 43.6783 36.2433C43.5552 36.1491 43.4519 36.0316 43.3743 35.8974C43.2968 35.7632 43.2464 35.615 43.2262 35.4613C43.206 35.3076 43.2164 35.1514 43.2566 35.0017L44.4944 30.3772L39.8372 29.1286C39.6838 29.0918 39.5393 29.0247 39.4123 28.9312C39.2853 28.8376 39.1783 28.7196 39.0976 28.584C39.017 28.4485 38.9643 28.2981 38.9427 28.1419C38.9212 27.9856 38.9311 27.8266 38.972 27.6743C39.0129 27.5219 39.0839 27.3793 39.1809 27.2549C39.2778 27.1305 39.3987 27.0267 39.5364 26.9498C39.6741 26.8728 39.8258 26.8243 39.9826 26.8069C40.1394 26.7896 40.2981 26.8039 40.4492 26.8489L46.2544 28.4049C46.4043 28.4447 46.5447 28.5137 46.6679 28.6079C46.791 28.7021 46.8943 28.8196 46.9719 28.9538C47.0495 29.088 47.0998 29.2362 47.12 29.3899C47.1402 29.5436 47.1299 29.6998 47.0896 29.8494L45.5471 35.6111C45.4793 35.8633 45.3299 36.086 45.1223 36.2445C44.9146 36.4029 44.6604 36.4882 44.3992 36.4871Z" fill="#ADD9E2"/>
<path d="M35.8304 20.1814H35.7433C35.5456 20.1814 35.3511 20.1318 35.1775 20.0372L30.7869 17.6379C30.5511 17.5101 30.3662 17.3055 30.2628 17.0581C30.1594 16.8106 30.1437 16.5353 30.2183 16.2777L34.5708 1.22615V1.18534C34.5697 0.900438 34.6716 0.624734 34.8578 0.409083C35.044 0.193432 35.3019 0.0523821 35.5839 0.0119513C35.8659 -0.0284796 36.1531 0.0344358 36.3923 0.189092C36.6316 0.343749 36.8069 0.579713 36.8858 0.853461L41.3581 16.275C41.4327 16.5326 41.417 16.8079 41.3136 17.0553C41.2102 17.3027 41.0253 17.5074 40.7895 17.6352L36.3989 20.0345C36.2247 20.1305 36.0292 20.181 35.8304 20.1814ZM32.7509 16.022L35.7868 17.6814L38.8227 16.0247L35.7868 5.53243L32.7509 16.022Z" fill="#ADD9E2"/>
<path d="M31.0957 33.9026C30.8894 33.9021 30.6869 33.8477 30.5081 33.7448L20.7775 28.1273C20.5062 27.9704 20.3084 27.7122 20.2275 27.4094C20.1467 27.1066 20.1894 26.7841 20.3463 26.5128C20.5032 26.2416 20.7615 26.0437 21.0643 25.9629C21.367 25.882 21.6895 25.9247 21.9608 26.0817L31.6887 31.6991C31.9142 31.8291 32.0904 32.03 32.19 32.2704C32.2895 32.5109 32.3068 32.7775 32.2392 33.0288C32.1715 33.2801 32.0227 33.5021 31.8159 33.6601C31.6092 33.8181 31.3559 33.9034 31.0957 33.9026Z" fill="#ADD9E2"/>
<path d="M17.097 30.8888C16.9379 30.8894 16.7804 30.8577 16.6341 30.7955C16.4877 30.7333 16.3555 30.6419 16.2455 30.527L5.36419 19.2104C5.11231 19.0715 4.91983 18.8453 4.82292 18.5744C4.726 18.3036 4.73132 18.0066 4.83788 17.7394C4.94443 17.4722 5.14489 17.2531 5.40159 17.1232C5.65829 16.9934 5.95358 16.9617 6.23198 17.0342L21.814 20.8807C22.0749 20.9455 22.3059 21.0972 22.4691 21.3108C22.6322 21.5244 22.7178 21.7872 22.7117 22.0559L22.5893 27.0586C22.584 27.2564 22.5298 27.4499 22.4315 27.6217L22.388 27.6952C22.2893 27.8668 22.149 28.0109 21.98 28.1141L17.7091 30.7174C17.5246 30.8297 17.3129 30.889 17.097 30.8888ZM9.72488 20.3339L17.2901 28.2066L20.2444 26.4057L20.3287 22.9482L9.72488 20.3339Z" fill="#ADD9E2"/>
<path d="M21.1969 44.7867C20.9369 44.7868 20.6841 44.7011 20.4778 44.5429C20.2714 44.3847 20.1231 44.1627 20.0558 43.9116C19.9886 43.6604 20.0061 43.3941 20.1057 43.1539C20.2052 42.9137 20.3813 42.7131 20.6066 42.5832L30.3345 36.9657C30.6058 36.8092 30.9282 36.7668 31.2307 36.8479C31.5332 36.929 31.7911 37.127 31.9477 37.3983C32.1042 37.6695 32.1466 37.9919 32.0655 38.2944C31.9844 38.597 31.7864 38.8549 31.5151 39.0114L21.7872 44.6289C21.6081 44.7334 21.4043 44.7879 21.1969 44.7867Z" fill="#ADD9E2"/>
<path d="M5.76114 53.688C5.52869 53.6892 5.30104 53.6218 5.10674 53.4942C4.91244 53.3666 4.76013 53.1845 4.66892 52.9707C4.5777 52.7569 4.55163 52.5209 4.59397 52.2923C4.63632 52.0638 4.7452 51.8528 4.90695 51.6858L16.0304 40.1081C16.2166 39.9142 16.4634 39.7896 16.73 39.755C16.9966 39.7203 17.2671 39.7777 17.4966 39.9177L21.773 42.5238C21.942 42.627 22.0823 42.771 22.1811 42.9427L22.2246 43.0162C22.3228 43.188 22.377 43.3814 22.3824 43.5793L22.4993 48.5819C22.5059 48.8508 22.4205 49.1138 22.2573 49.3275C22.094 49.5412 21.8627 49.6928 21.6016 49.7571L6.36777 53.5275C6.1839 53.6351 5.97418 53.6906 5.76114 53.688ZM17.0777 42.4367L9.51247 50.3039L20.1218 47.6897L20.0402 44.2321L17.0777 42.4367Z" fill="#ADD9E2"/>
<path d="M35.4033 53.187C35.0902 53.187 34.7899 53.0626 34.5685 52.8412C34.347 52.6198 34.2227 52.3195 34.2227 52.0064V40.7714C34.2227 40.4583 34.347 40.158 34.5685 39.9366C34.7899 39.7152 35.0902 39.5908 35.4033 39.5908C35.7164 39.5908 36.0167 39.7152 36.2381 39.9366C36.4595 40.158 36.5839 40.4583 36.5839 40.7714V52.0064C36.5839 52.3195 36.4595 52.6198 36.2381 52.8412C36.0167 53.0626 35.7164 53.187 35.4033 53.187Z" fill="#ADD9E2"/>
<path d="M35.391 71.0002C35.1356 70.9998 34.8873 70.9165 34.6833 70.763C34.4793 70.6095 34.3305 70.394 34.2593 70.1488L29.7925 54.7245C29.7179 54.4669 29.7336 54.1916 29.837 53.9442C29.9404 53.6967 30.1253 53.4921 30.3611 53.3643L34.7544 50.965C34.9278 50.8698 35.1225 50.8201 35.3202 50.8208H35.4046C35.6023 50.8205 35.7969 50.8701 35.9704 50.965L40.3637 53.3643C40.5984 53.4933 40.7824 53.698 40.8857 53.945C40.989 54.1921 41.0054 54.4669 40.9323 54.7245L36.5798 69.7733V69.8142C36.5807 70.0987 36.4788 70.3741 36.2929 70.5895C36.107 70.8049 35.8495 70.946 35.5678 70.9866C35.5093 70.9955 35.4502 71 35.391 71.0002ZM32.3252 54.9775L35.3747 65.4752L38.4133 54.9856L35.3747 53.3181L32.3252 54.9775Z" fill="#ADD9E2"/>
<path d="M49.7912 45.0831C49.5849 45.0826 49.3824 45.0282 49.2036 44.9253L39.4539 39.3078C39.3196 39.2303 39.2019 39.1271 39.1074 39.0041C39.013 38.881 38.9437 38.7406 38.9036 38.5908C38.8634 38.441 38.8531 38.2848 38.8734 38.131C38.8936 37.9773 38.9439 37.829 39.0214 37.6947C39.0989 37.5603 39.2021 37.4426 39.3252 37.3482C39.4482 37.2537 39.5886 37.1845 39.7384 37.1443C39.8882 37.1041 40.0444 37.0939 40.1982 37.1141C40.352 37.1343 40.5002 37.1846 40.6346 37.2621L50.3625 42.8796C50.5879 43.0096 50.7641 43.2104 50.8637 43.4509C50.9632 43.6914 50.9805 43.958 50.9129 44.2093C50.8453 44.4606 50.6965 44.6825 50.4897 44.8405C50.2829 44.9986 50.0297 45.0838 49.7694 45.0831H49.7912Z" fill="#ADD9E2"/>
<path d="M65.208 54.0035C65.1164 54.0024 65.0252 53.9915 64.9359 53.9709L49.3484 50.127C49.0861 50.0669 48.8522 49.9189 48.6855 49.7077C48.5188 49.4964 48.4292 49.2346 48.4317 48.9655L48.5487 43.9628C48.554 43.7658 48.6082 43.5732 48.7064 43.4024L48.7472 43.3289C48.8461 43.1557 48.9875 43.0106 49.158 42.9073L53.4317 40.3039C53.6612 40.164 53.9317 40.1066 54.1983 40.1412C54.4649 40.1758 54.7117 40.3004 54.8979 40.4943L65.7792 51.8136C66.0043 51.9434 66.1803 52.1437 66.2799 52.3837C66.3796 52.6236 66.3973 52.8897 66.3304 53.1407C66.2634 53.3917 66.1156 53.6136 65.9097 53.7721C65.7038 53.9305 65.4514 54.0167 65.1916 54.0171L65.208 54.0035ZM50.8229 48.0596L61.4321 50.6738L53.8724 42.7985L50.9045 44.6129L50.8229 48.0596Z" fill="#ADD9E2"/>
<path d="M40.2231 34.1967C39.9628 34.1975 39.7096 34.1122 39.5028 33.9542C39.296 33.7962 39.1473 33.5742 39.0796 33.3229C39.012 33.0716 39.0293 32.805 39.1288 32.5645C39.2284 32.3241 39.4046 32.1232 39.6301 31.9932L49.3607 26.3866C49.632 26.2301 49.9543 26.1877 50.2568 26.2688C50.5594 26.3499 50.8173 26.5479 50.9738 26.8192C51.1304 27.0904 51.1728 27.4128 51.0917 27.7153C51.0106 28.0179 50.8126 28.2758 50.5413 28.4323L40.8134 34.0389C40.6343 34.1435 40.4305 34.198 40.2231 34.1967Z" fill="#ADD9E2"/>
<path d="M54.2675 31.2588C54.0506 31.2599 53.8377 31.2005 53.6527 31.0874L49.379 28.4813C49.2107 28.3784 49.0705 28.2354 48.971 28.0651L48.9302 27.9917C48.8295 27.8209 48.7751 27.6268 48.7724 27.4286L48.6527 22.4259C48.6461 22.157 48.7315 21.894 48.8948 21.6803C49.058 21.4666 49.2893 21.315 49.5504 21.2507L64.7843 17.4803C65.0299 17.331 65.3216 17.2765 65.6046 17.3269C65.8876 17.3774 66.1425 17.5294 66.3215 17.7544C66.5004 17.9794 66.5911 18.2619 66.5765 18.549C66.562 18.8361 66.4431 19.1081 66.2424 19.3138L55.1189 30.8915C55.0094 31.0074 54.8774 31.0998 54.731 31.1629C54.5846 31.2261 54.4269 31.2587 54.2675 31.2588ZM51.1173 26.7757L54.0716 28.5765L61.6368 20.7039L51.0275 23.3181L51.1173 26.7757Z" fill="#ADD9E2"/>
<path d="M25.7439 19.3654C25.6239 19.3651 25.5047 19.3467 25.3902 19.311L19.1933 17.3632C18.8943 17.2695 18.6447 17.0607 18.4996 16.7829C18.3544 16.5051 18.3256 16.1811 18.4194 15.882C18.5132 15.583 18.7219 15.3334 18.9997 15.1883C19.2775 15.0431 19.6016 15.0143 19.9006 15.1081L24.8815 16.675L26.0785 11.5336C26.1142 11.3826 26.1793 11.2402 26.2701 11.1144C26.3608 10.9887 26.4755 10.882 26.6075 10.8005C26.7395 10.7191 26.8862 10.6644 27.0393 10.6397C27.1924 10.6149 27.3489 10.6205 27.4999 10.6563C27.6508 10.692 27.7932 10.7571 27.919 10.8479C28.0448 10.9386 28.1514 11.0533 28.2329 11.1853C28.3144 11.3172 28.369 11.464 28.3938 11.6171C28.4185 11.7702 28.4129 11.9267 28.3772 12.0776L26.8946 18.4514C26.8343 18.7114 26.6878 18.9433 26.4788 19.1092C26.2698 19.2752 26.0108 19.3655 25.7439 19.3654Z" fill="#ADD9E2"/>
<path d="M26.3635 36.5141H7.76461C7.45149 36.5141 7.15119 36.3897 6.92978 36.1683C6.70837 35.9469 6.58398 35.6466 6.58398 35.3335C6.58398 35.0203 6.70837 34.72 6.92978 34.4986C7.15119 34.2772 7.45149 34.1528 7.76461 34.1528H26.3635C26.5186 34.1528 26.6721 34.1834 26.8153 34.2427C26.9586 34.302 27.0887 34.389 27.1983 34.4986C27.308 34.6083 27.3949 34.7384 27.4543 34.8817C27.5136 35.0249 27.5441 35.1784 27.5441 35.3335C27.5441 35.4885 27.5136 35.642 27.4543 35.7853C27.3949 35.9285 27.308 36.0587 27.1983 36.1683C27.0887 36.2779 26.9586 36.3649 26.8153 36.4242C26.6721 36.4835 26.5186 36.5141 26.3635 36.5141Z" fill="#ADD9E2"/>
<path d="M10.8743 40.9294C10.6362 40.9298 10.4035 40.8583 10.2068 40.7241C10.0101 40.59 9.85856 40.3995 9.77207 40.1776C9.68557 39.9558 9.66817 39.713 9.72214 39.4811C9.77611 39.2492 9.89893 39.0391 10.0745 38.8782L13.921 35.3418L10.0745 31.7428C9.96123 31.6369 9.86996 31.5097 9.80587 31.3685C9.74178 31.2273 9.70613 31.0749 9.70095 30.9199C9.69049 30.6069 9.80479 30.3026 10.0187 30.0739C10.2326 29.8452 10.5286 29.7108 10.8416 29.7004C10.9966 29.6952 11.1511 29.7206 11.2962 29.7751C11.4414 29.8296 11.5744 29.9122 11.6876 30.0181L16.4754 34.4958C16.5944 34.6063 16.6893 34.7402 16.7542 34.889C16.8191 35.0378 16.8526 35.1985 16.8526 35.3609C16.8526 35.5232 16.8191 35.6839 16.7542 35.8327C16.6893 35.9816 16.5944 36.1154 16.4754 36.2259L11.6876 40.6193C11.4668 40.8239 11.1753 40.9351 10.8743 40.9294Z" fill="#ADD9E2"/>
<path d="M21.5182 60.6843C21.3115 60.6841 21.1087 60.6287 20.9306 60.5238C20.7963 60.4463 20.6785 60.3431 20.584 60.2201C20.4896 60.097 20.4203 59.9566 20.3801 59.8068C20.34 59.657 20.3297 59.5008 20.3499 59.347C20.3702 59.1932 20.4205 59.0449 20.4981 58.9106L29.7962 42.8035C29.8737 42.6692 29.9769 42.5515 30.0999 42.4571C30.223 42.3626 30.3634 42.2933 30.5132 42.2532C30.663 42.213 30.8192 42.2028 30.973 42.223C31.1267 42.2432 31.275 42.2935 31.4093 42.371C31.5437 42.4485 31.6614 42.5517 31.7558 42.6748C31.8503 42.7978 31.9195 42.9382 31.9597 43.088C31.9999 43.2378 32.0101 43.394 31.9899 43.5478C31.9697 43.7016 31.9194 43.8498 31.8419 43.9842L22.5438 60.0912C22.4402 60.2717 22.2909 60.4216 22.1108 60.5257C21.9307 60.6298 21.7263 60.6846 21.5182 60.6843Z" fill="#ADD9E2"/>
<path d="M26.8997 60.1972C26.6316 60.1974 26.3714 60.1061 26.1622 59.9384C25.9529 59.7707 25.8072 59.5367 25.749 59.275L24.6146 54.1771L19.563 55.7113C19.2632 55.8022 18.9396 55.7703 18.6633 55.6226C18.3871 55.475 18.1808 55.2236 18.0899 54.9238C17.999 54.624 18.0309 54.3004 18.1786 54.0242C18.3263 53.7479 18.5777 53.5416 18.8774 53.4507L25.1342 51.5465C25.2898 51.4987 25.4536 51.4837 25.6153 51.5024C25.777 51.5211 25.9331 51.5732 26.0737 51.6552C26.2142 51.7373 26.3363 51.8476 26.4321 51.9791C26.5279 52.1107 26.5954 52.2608 26.6304 52.4197L28.0531 58.7581C28.1212 59.0636 28.0652 59.3837 27.8974 59.648C27.7295 59.9122 27.4636 60.099 27.1581 60.1672C27.0733 60.1865 26.9867 60.1965 26.8997 60.1972Z" fill="#ADD9E2"/>
<path d="M49.3324 60.853C49.125 60.8533 48.9212 60.7989 48.7416 60.6953C48.562 60.5916 48.413 60.4424 48.3095 60.2627L39.0114 44.1556C38.9269 44.0212 38.8703 43.8711 38.8451 43.7144C38.8198 43.5576 38.8265 43.3974 38.8646 43.2432C38.9028 43.0891 38.9716 42.9442 39.067 42.8173C39.1625 42.6904 39.2825 42.5841 39.42 42.5046C39.5574 42.4252 39.7095 42.3743 39.8671 42.355C40.0247 42.3356 40.1846 42.3483 40.3372 42.3922C40.4898 42.4362 40.632 42.5104 40.7552 42.6105C40.8784 42.7106 40.9802 42.8346 41.0544 42.975L50.3552 59.0821C50.5111 59.3535 50.5532 59.6756 50.4721 59.978C50.391 60.2803 50.1935 60.5382 49.9227 60.6952C49.7436 60.7997 49.5397 60.8541 49.3324 60.853Z" fill="#ADD9E2"/>
<path d="M43.9205 60.3907C43.8288 60.3907 43.7375 60.3798 43.6484 60.358C43.3437 60.2868 43.0797 60.0976 42.9144 59.8318C42.7491 59.566 42.6961 59.2455 42.7671 58.9407L44.2524 52.5588C44.2887 52.4001 44.3576 52.2507 44.4546 52.12C44.5517 51.9892 44.6747 51.88 44.8161 51.7992C44.9575 51.7185 45.114 51.6679 45.2759 51.6506C45.4378 51.6334 45.6015 51.65 45.7567 51.6992L51.9672 53.6442C52.2534 53.7487 52.4882 53.9595 52.6228 54.2327C52.7575 54.506 52.7815 54.8206 52.6901 55.1112C52.5986 55.4017 52.3986 55.6458 52.1317 55.7926C51.8648 55.9394 51.5516 55.9777 51.2572 55.8994L46.2545 54.3325L45.0576 59.4739C44.9984 59.7321 44.8541 59.9629 44.6478 60.1292C44.4416 60.2955 44.1854 60.3876 43.9205 60.3907Z" fill="#ADD9E2"/>
<path d="M63.3932 36.8544H44.7861C44.473 36.8544 44.1727 36.73 43.9513 36.5086C43.7299 36.2872 43.6055 35.9869 43.6055 35.6738C43.6055 35.3607 43.7299 35.0604 43.9513 34.839C44.1727 34.6175 44.473 34.4932 44.7861 34.4932H63.3932C63.7063 34.4932 64.0066 34.6175 64.228 34.839C64.4494 35.0604 64.5738 35.3607 64.5738 35.6738C64.5738 35.9869 64.4494 36.2872 64.228 36.5086C64.0066 36.73 63.7063 36.8544 63.3932 36.8544Z" fill="#ADD9E2"/>
<path d="M60.2734 41.3078C59.9706 41.3103 59.6784 41.1963 59.4573 40.9895L54.6885 36.5118C54.5687 36.4015 54.4731 36.2676 54.4077 36.1184C54.3424 35.9693 54.3086 35.8082 54.3086 35.6454C54.3086 35.4826 54.3424 35.3215 54.4077 35.1724C54.4731 35.0232 54.5687 34.8893 54.6885 34.779L59.4736 30.3884C59.7056 30.1863 60.0074 30.0828 60.3146 30.1C60.6218 30.1171 60.9102 30.2535 61.1183 30.4801C61.3265 30.7067 61.4379 31.0055 61.429 31.3131C61.42 31.6206 61.2914 31.9125 61.0704 32.1267L57.2239 35.6631L61.0786 39.2702C61.2522 39.4326 61.3728 39.6436 61.4246 39.8756C61.4763 40.1076 61.4568 40.3498 61.3686 40.5706C61.2804 40.7913 61.1277 40.9803 60.9303 41.1128C60.733 41.2453 60.5002 41.3152 60.2625 41.3132L60.2734 41.3078Z" fill="#ADD9E2"/>
<path d="M40.3276 28.7912C40.1202 28.7924 39.9164 28.7379 39.7373 28.6334C39.6029 28.556 39.4851 28.4528 39.3907 28.3297C39.2962 28.2067 39.2269 28.0663 39.1868 27.9165C39.1466 27.7667 39.1363 27.6104 39.1566 27.4567C39.1768 27.3029 39.2272 27.1546 39.3047 27.0203L48.6055 10.9132C48.7651 10.6477 49.0227 10.4555 49.3227 10.3782C49.6227 10.3009 49.9411 10.3445 50.2092 10.4998C50.4773 10.6551 50.6736 10.9095 50.7558 11.2082C50.8379 11.507 50.7994 11.826 50.6485 12.0966L41.3586 28.2009C41.2549 28.3822 41.1046 28.5325 40.9234 28.6363C40.7421 28.7401 40.5364 28.7936 40.3276 28.7912Z" fill="#ADD9E2"/>
<path d="M45.6573 19.5093C45.3893 19.509 45.1294 19.4175 44.9202 19.2499C44.7111 19.0823 44.5652 18.8486 44.5066 18.5871L43.0947 12.2406C43.0265 11.9346 43.0827 11.6142 43.2508 11.3497C43.4189 11.0851 43.6852 10.8982 43.9911 10.8301C44.297 10.7619 44.6174 10.818 44.8819 10.9861C45.1465 11.1542 45.3334 11.4205 45.4016 11.7264L46.5278 16.8298L51.5794 15.2928C51.8792 15.2015 52.2029 15.2331 52.4795 15.3805C52.756 15.5279 52.9626 15.7792 53.0538 16.0789C53.1451 16.3787 53.1136 16.7025 52.9661 16.979C52.8187 17.2555 52.5674 17.4621 52.2677 17.5534L45.9973 19.4576C45.8869 19.4905 45.7725 19.5079 45.6573 19.5093Z" fill="#ADD9E2"/>
<path d="M17.0632 5.43993C17.2701 5.08149 17.5786 4.79245 17.9497 4.60938C18.3209 4.42631 18.738 4.35743 19.1483 4.41146C19.5586 4.4655 19.9436 4.64001 20.2547 4.91293C20.5658 5.18585 20.789 5.54491 20.896 5.94468C21.0029 6.34445 20.989 6.76698 20.8558 7.1588C20.7226 7.55061 20.4761 7.89412 20.1477 8.14586C19.8192 8.39761 19.4235 8.54627 19.0105 8.57304C18.5975 8.59982 18.1859 8.5035 17.8277 8.29628C17.3477 8.01866 16.9977 7.56188 16.8543 7.0263C16.711 6.49072 16.7861 5.92014 17.0632 5.43993Z" fill="#ADD9E2"/>
<path d="M0.281453 36.5086C0.0743229 36.1508 -0.0221315 35.7396 0.00427065 35.327C0.0306728 34.9144 0.178747 34.5189 0.429795 34.1904C0.680843 33.8619 1.0236 33.6151 1.4148 33.4813C1.80599 33.3474 2.22806 33.3325 2.62772 33.4384C3.02738 33.5443 3.3867 33.7663 3.6603 34.0762C3.9339 34.3862 4.10952 34.7703 4.16497 35.18C4.22042 35.5897 4.15322 36.0067 3.97186 36.3782C3.79049 36.7498 3.50309 37.0593 3.14596 37.2676C2.90816 37.4063 2.64532 37.4967 2.3725 37.5336C2.09969 37.5705 1.82227 37.5533 1.55615 37.4827C1.29003 37.4122 1.04045 37.2899 0.821707 37.1227C0.602967 36.9556 0.419374 36.7469 0.281453 36.5086Z" fill="#ADD9E2"/>
<path d="M20.2815 65.9494C21.0984 65.1325 21.0984 63.808 20.2815 62.991C19.4645 62.1741 18.1399 62.1741 17.323 62.991C16.506 63.808 16.506 65.1325 17.323 65.9494C18.1399 66.7664 19.4645 66.7664 20.2815 65.9494Z" fill="#ADD9E2"/>
<path d="M52.8164 66.5331C53.9323 66.234 54.5946 65.0869 54.2956 63.971C53.9966 62.855 52.8495 62.1927 51.7335 62.4918C50.6176 62.7908 49.9553 63.9379 50.2543 65.0539C50.5533 66.1698 51.7004 66.8321 52.8164 66.5331Z" fill="#ADD9E2"/>
<path d="M70.8578 34.4986C71.065 34.8568 71.1613 35.2684 71.1346 35.6814C71.1078 36.0944 70.9591 36.4901 70.7074 36.8186C70.4556 37.1471 70.1121 37.3935 69.7203 37.5267C69.3285 37.6599 68.906 37.6739 68.5062 37.5669C68.1064 37.4599 67.7474 37.2368 67.4745 36.9257C67.2015 36.6146 67.027 36.2295 66.973 35.8192C66.919 35.4089 66.9878 34.9918 67.1709 34.6207C67.354 34.2495 67.643 33.941 68.0015 33.7342C68.2391 33.5962 68.5015 33.5066 68.7739 33.4704C69.0462 33.4341 69.323 33.4521 69.5884 33.5231C69.8538 33.5941 70.1025 33.7168 70.3204 33.8842C70.5382 34.0516 70.7209 34.2604 70.8578 34.4986Z" fill="#ADD9E2"/>
<path d="M54.3826 7.01544C54.648 5.89099 53.9516 4.76429 52.8271 4.49889C51.7027 4.23349 50.576 4.92988 50.3106 6.05433C50.0452 7.17878 50.7416 8.30548 51.8661 8.57089C52.9905 8.83629 54.1172 8.13989 54.3826 7.01544Z" fill="#ADD9E2"/>
</svg>
